<?xml version="1.0" encoding="UTF-8"?>
<svg xmlns="http://www.w3.org/2000/svg" version="1.1" width="4337.01" height="3401.57" viewBox="0 0 4337.01 3401.57">
  <defs>
    <style>
      .st0 {
        fill: none;
        stroke: #231815;
        stroke-miterlimit: 10;
        stroke-width: .2px;
      }
    </style>
  </defs>
  <polyline class="st0" points="3522.04 739.767 3817.71 831.017 3779.23 907.994 3765.21 1008.83 3762.46 1034.12 3757.96 1095.48 3756.87 1152.28 3758.95 1206.22 3764.11 1257.57 3765.75 1269.18 3751.82 1271.82 3765.83 1269.72 3772.01 1304.68 3781.99 1345.43 3783.9 1351.99 3770.31 1356.02 3783.9 1351.99 3796.29 1388.73 3801.34 1401.38 3816.28 1433.39 3828.82 1455.69 3846.29 1481.8 3864.5 1504.35 3885.34 1525.63 3893.15 1532.61 3916.81 1551.06 3925.54 1556.97 3950.94 1571.76 3960.23 1576.28 3985.8 1586.46 4001.93 1591.39 4035.94 1598.84 4085.99 1605.4 4097.61 1606.61 4097.61 3214.86 3184.97 3214.86 2272.34 3214.86 2272.34 1606.61 2328.28 1599.79 2362.4 1592.87 2368.02 1591.39 2395 1582.51 2409.72 1576.28 2435.66 1562.47 2444.41 1556.97 2468.69 1539.36 2476.8 1532.61 2498.36 1512.06 2505.45 1504.35 2525.08 1479.85 2541.12 1455.69 2558.07 1424.69 2568.61 1401.38 2582.01 1365 2586.05 1351.99 2599.64 1356.02 2586.05 1351.99 2596.53 1311.33 2597.94 1304.68 2604.12 1269.72 2604.22 1269 2618.24 1271.09 2604.22 1269 2610.12 1217.82 2612.89 1163.99 2613.07 1152.28 2612.09 1097.84 2607.72 1036.48 2607.49 1034.12 2597.77 955.842 2590.72 907.994 2552.24 831.017 2847.91 739.766 2878.23 815.114 2890.95 836.547 2903.89 851.901 2912.86 860.408 2933.1 876.15 2938.48 879.638 2958.9 890.545 2966.4 893.689 2988.15 900.56 3016.71 906.124 3052.83 910.174 3113.52 913.367 3184.97 914.268 3184.97 928.442 3184.97 914.268 3272.29 912.841 3317.12 910.174 3353.24 906.124 3382.81 900.303 3403.55 893.689 3424.47 883.782 3431.47 879.638 3450.73 865.822 3457.09 860.408 3471.79 845.701 3479 836.547 3491.72 815.115 3522.04 739.767"/>
  <polyline class="st0" points="948.652 846.592 957.491 883.924 971.978 934.436 977.754 951.988 994.804 998.201 1014.67 1043.24 1018.45 1050.92 1039.77 1089.77 1041.77 1093.07 1029.68 1100.46 1041.77 1093.07 1042.12 1093.65 1063.09 1125.05 1066.75 1129.99 1089.86 1158.17 1108.06 1177.29 1134.92 1201.59 1155.62 1217.71 1186.84 1238.44 1210.48 1251.74 1247.41 1269.69 1247.41 1283.86 1247.41 1269.69 1284.33 1251.74 1316.77 1232.99 1339.2 1217.71 1367.52 1195.12 1386.76 1177.29 1411.58 1150.6 1428.07 1129.99 1449.45 1098.87 1452.69 1093.65 1453.05 1093.07 1465.14 1100.46 1453.05 1093.07 1473.31 1056.94 1476.37 1050.92 1495.95 1008.11 1514.98 958.066 1517.06 951.988 1532.59 901.767 1537.32 883.924 1546.16 846.592 1836.81 935.525 1826.32 1019.02 1824.91 1032.65 1820.29 1095.37 1819.67 1111.09 1819.48 1165.73 1820.37 1189.14 1824.29 1238.34 1828.17 1268.35 1814.16 1270.45 1828.17 1268.35 1836.05 1311.54 1842.34 1337.7 1854.31 1376.73 1864.95 1404.31 1880.01 1436.15 1885.96 1447.01 1903.63 1474.94 1912.02 1486.36 1933.29 1511.23 1947.56 1525.34 1971.02 1544.99 1989.18 1557.69 2016.07 1573 2025.91 1577.65 2050.93 1587.29 2065.42 1591.46 2097.65 1597.64 2160.04 1604.91 2160.04 3213.93 1247.41 3213.93 334.774 3213.93 334.774 1604.91 397.168 1597.64 429.398 1591.46 454.173 1583.7 468.906 1577.65 494.94 1564.25 505.638 1557.69 530.465 1539.81 547.254 1525.34 568.67 1503.45 582.796 1486.36 602.099 1458.38 608.851 1447.01 624.878 1415.64 629.865 1404.31 642.791 1370.07 652.472 1337.7 662.151 1294.88 666.641 1268.35 680.658 1270.45 666.641 1268.35 672.388 1219.33 674.447 1189.14 675.589 1132.94 675.143 1111.09 671.758 1053.01 669.902 1032.65 659.044 943.284 658.001 935.525 948.652 846.592"/>
  <polyline class="st0" points="2137.06 581.863 2073.36 669.737 2137.06 757.612 1525.63 757.612 1525.63 743.438 1525.63 757.612 1217.5 757.612 1217.5 743.438 1217.5 757.612 909.376 757.612 909.376 743.438 909.376 757.612 297.943 757.612 361.647 669.737 297.943 581.863 909.376 581.863 909.376 596.036 909.376 581.863 1217.5 581.863 1217.5 596.036 1217.5 581.863 1525.63 581.863 1525.63 596.036 1525.63 581.863 2137.06 581.863"/>
</svg>
