<?xml version="1.0" encoding="UTF-8"?>
<svg xmlns="http://www.w3.org/2000/svg" version="1.1" width="4478.74" height="3401.57" viewBox="0 0 4478.74 3401.57">
  <defs>
    <style>
      .st0 {
        fill: none;
        stroke: #231815;
        stroke-miterlimit: 10;
        stroke-width: .2px;
      }
    </style>
  </defs>
  <polyline class="st0" points="4261.57 3233.45 3348.8 3233.45 2436.02 3233.45 2436.02 1672.22 2468.89 1667.5 2487.75 1666.16 2493.12 1665.65 2497.84 1665.15 2507.27 1664.02 2518.37 1662.44 2534.36 1659.66 2542.04 1658.1 2555.37 1655.04 2562.75 1653.14 2575.47 1649.5 2582.53 1647.27 2594.69 1643.07 2621.5 1632 2650.6 1616.7 2653.06 1615.24 2679.75 1597.37 2702.73 1578.66 2717.03 1565.09 2727.09 1575.07 2717.03 1565.09 2738.76 1541 2742.08 1536.9 2762.17 1509.25 2775.18 1488.19 2791.91 1456.02 2800.8 1435.66 2813.12 1401.7 2819.44 1380.47 2830.25 1334.84 2832.59 1323.34 2840.37 1281.03 2840.46 1280.46 2854.45 1282.74 2840.46 1280.46 2846.83 1233.06 2849.09 1206.25 2850.52 1160.01 2850.35 1143.76 2847.4 1085.72 2847.01 1080.69 2838.87 1000.72 2829.5 927.094 3081.09 853.318 3102.85 895.551 3108.15 904.529 3121.19 923.594 3134.64 938.442 3148.37 949.53 3164.49 958.523 3184.91 966.267 3210.93 972.649 3242.13 977.152 3285.37 979.629 3348.8 981.435 3412.23 979.629 3455.46 977.152 3486.66 972.649 3512.68 966.267 3533.1 958.523 3549.22 949.53 3562.95 938.442 3576.4 923.594 3589.44 904.529 3606.74 873.068 3616.5 853.318 3868.09 927.094 3854.26 1040.67 3850.59 1080.69 3847.36 1138.7 3847.24 1143.76 3847.81 1193.76 3848.5 1206.25 3853.06 1252.72 3857.23 1281.03 3843.24 1283.32 3857.23 1281.03 3865 1323.34 3876.93 1375.95 3878.15 1380.47 3889.32 1416.05 3896.79 1435.66 3911.83 1468.64 3922.41 1488.19 3942.07 1518.98 3955.51 1536.9 3978.45 1562.94 3980.56 1565.09 3970.5 1575.07 3980.56 1565.09 3994.86 1578.66 4019.83 1598.84 4044.53 1615.24 4073.5 1630.79 4076.09 1632 4102.9 1643.07 4115.07 1647.27 4122.12 1649.5 4134.84 1653.14 4142.22 1655.04 4155.55 1658.1 4163.23 1659.66 4179.22 1662.44 4190.32 1664.02 4199.76 1665.15 4204.47 1665.65 4209.84 1666.16 4228.7 1667.5 4261.57 1672.22 4261.57 3233.45"/>
  <polyline class="st0" points="2288.62 3231.4 1375.85 3231.37 463.071 3231.37 463.072 1669.82 496.001 1665.42 514.802 1664.09 524.905 1663.07 539.476 1661.25 547.475 1660.04 561.417 1657.58 569.088 1656.03 582.437 1652.96 609.609 1645.18 621.77 1640.98 645.106 1631.49 673.364 1617.1 680.209 1613.09 706.858 1595.24 729.805 1576.56 744.103 1562.98 754.166 1572.96 744.103 1562.98 765.828 1538.89 769.154 1534.79 789.244 1507.14 802.251 1486.07 818.974 1453.91 827.868 1433.55 840.188 1399.58 846.5 1378.36 857.307 1332.72 859.65 1321.23 867.384 1279.15 867.478 1278.58 881.466 1280.86 867.478 1278.58 873.872 1231.03 876.141 1204.14 877.577 1157.9 877.403 1141.65 874.449 1083.62 874.056 1078.58 865.92 998.65 856.554 925.05 1112.91 849.242 1133.86 917.5 1154.62 977.029 1176.07 1029.97 1198.06 1076.7 1222.27 1121.43 1248.09 1163.11 1275.45 1201.93 1304.18 1237.61 1335.23 1271.52 1375.88 1311.02 1416.54 1271.52 1447.58 1237.61 1476.31 1201.94 1503.67 1163.11 1529.5 1121.44 1553.72 1076.71 1575.7 1029.98 1597.16 977.038 1617.92 917.509 1638.87 849.252 1895.22 925.07 1881.39 1038.6 1877.71 1078.6 1874.49 1136.61 1874.37 1141.67 1874.94 1191.67 1875.63 1204.16 1880.2 1250.77 1884.38 1279.17 1870.39 1281.46 1884.38 1279.17 1892.11 1321.25 1904.04 1373.85 1905.26 1378.38 1916.42 1413.96 1923.89 1433.57 1938.93 1466.55 1949.5 1486.1 1969.16 1516.9 1982.6 1534.81 2005.53 1560.86 2007.65 1563.01 1997.59 1572.99 2007.65 1563.01 2021.95 1576.58 2046.88 1596.73 2071.54 1613.12 2099.45 1628.18 2106.64 1631.52 2129.98 1641.01 2142.14 1645.21 2169.31 1652.99 2182.66 1656.06 2190.33 1657.61 2204.27 1660.07 2212.27 1661.28 2226.84 1663.11 2236.95 1664.12 2255.75 1665.46 2288.68 1669.86 2288.62 3231.4"/>
</svg>
