<?xml version="1.0" encoding="UTF-8"?>
<svg xmlns="http://www.w3.org/2000/svg" version="1.1" width="4478.74" height="3401.57" viewBox="0 0 4478.74 3401.57">
  <defs>
    <style>
      .st0 {
        fill: none;
        stroke: #231815;
        stroke-miterlimit: 10;
        stroke-width: .2px;
      }
    </style>
  </defs>
  <polyline class="st0" points="3998.2 2882.98 3255.51 2882.98 2512.81 2882.98 2512.81 1356.44 2539.48 1351.99 2554.81 1350.55 2559.17 1350.03 2563 1349.54 2570.66 1348.45 2579.66 1346.95 2592.62 1344.4 2598.85 1342.98 2609.65 1340.25 2615.61 1338.56 2625.9 1335.37 2631.6 1333.42 2641.42 1329.77 2663.04 1320.27 2688.42 1306.04 2712.18 1289.13 2728.17 1275.35 2739.56 1264.03 2749.9 1273.72 2739.56 1264.03 2759.03 1240.81 2775.52 1216.53 2784.49 1200.94 2798.66 1171.27 2803.86 1158.16 2814.49 1125.2 2817.55 1113.42 2826.17 1070.95 2826.8 1067.24 2832.07 1033.08 2846.1 1035.08 2832.07 1033.08 2838.08 981.252 2838.66 972.78 2839.53 932.497 2839.32 922.421 2836.26 871.625 2827.65 794.894 2821.26 747.979 3040.92 670.856 3053.88 707.232 3057.63 716.124 3066.3 733.302 3075.78 747.044 3085.9 757.711 3098.22 766.91 3114.23 775.552 3135.01 783.684 3160.29 790.835 3192.86 797.244 3195.72 797.636 3230.31 800.352 3255.51 800.985 3299.83 799.256 3315.29 797.636 3347.92 791.509 3350.72 790.835 3376 783.684 3396.78 775.552 3412.79 766.91 3425.11 757.711 3435.23 747.044 3444.71 733.302 3453.38 716.124 3466.4 681.848 3470.09 670.856 3689.76 747.979 3677.14 846.834 3674.76 871.625 3671.69 922.421 3671.97 965.739 3672.35 972.78 3676.96 1018.65 3678.94 1033.08 3664.91 1035.08 3678.94 1033.08 3684.21 1067.24 3692.36 1108.84 3693.46 1113.42 3703.08 1146.69 3707.15 1158.16 3720.1 1188.39 3726.52 1200.94 3742.13 1226.9 3751.98 1240.81 3769.39 1261.82 3771.45 1264.03 3761.11 1273.72 3771.45 1264.03 3782.84 1275.35 3805.2 1294.05 3822.59 1306.04 3847.97 1320.27 3869.59 1329.77 3879.41 1333.42 3885.11 1335.37 3895.4 1338.56 3901.37 1340.25 3912.16 1342.98 3918.39 1344.4 3931.35 1346.95 3940.36 1348.45 3948.02 1349.54 3951.85 1350.03 3956.21 1350.55 3971.53 1351.99 3998.2 1356.44 3998.2 2882.98"/>
  <polyline class="st0" points="2025.25 2880.93 1282.56 2880.9 539.867 2880.9 539.867 1354.05 566.586 1349.87 581.862 1348.44 590.066 1347.43 601.891 1345.67 608.379 1344.54 619.681 1342.29 625.895 1340.88 636.703 1338.14 658.674 1331.31 668.494 1327.67 687.312 1319.52 713.353 1305.27 715.543 1303.89 739.266 1287.01 755.235 1273.25 766.622 1261.94 767.103 1261.43 777.439 1271.13 767.103 1261.43 786.089 1238.73 802.574 1214.45 811.546 1198.85 825.712 1169.18 830.909 1156.08 841.542 1123.12 844.602 1111.34 853.218 1068.88 853.848 1065.17 859.092 1031.2 873.123 1033.21 859.092 1031.2 865.125 979.209 865.714 970.71 866.584 930.426 866.368 920.35 863.307 869.551 854.702 792.844 848.315 745.943 1070.18 667.402 1086.95 723.221 1103.61 771.914 1120.86 815.231 1138.58 853.482 1158.12 890.116 1179 924.257 1201.15 956.084 1224.43 985.34 1249.6 1013.17 1282.59 1045.61 1315.59 1013.18 1340.76 985.342 1364.05 956.087 1386.19 924.261 1407.07 890.12 1426.62 853.488 1444.34 815.237 1461.59 771.921 1478.25 723.228 1495.03 667.41 1716.88 745.96 1704.28 844.783 1701.89 869.567 1698.82 920.366 1699.1 963.685 1699.48 970.726 1704.11 1016.74 1706.1 1031.22 1692.07 1033.22 1706.1 1031.22 1711.34 1065.18 1719.49 1106.78 1720.58 1111.36 1730.2 1144.63 1734.28 1156.1 1747.21 1186.32 1753.64 1198.87 1769.24 1224.83 1779.09 1238.74 1796.49 1259.74 1798.56 1261.96 1788.21 1271.65 1798.56 1261.96 1809.94 1273.27 1832.27 1291.94 1849.64 1303.92 1875.54 1318.42 1877.87 1319.54 1896.68 1327.69 1906.5 1331.34 1928.47 1338.16 1939.28 1340.9 1945.5 1342.31 1956.8 1344.57 1963.29 1345.7 1975.11 1347.45 1983.31 1348.46 1998.59 1349.9 2025.31 1354.08 2025.25 2880.93"/>
</svg>
