<?xml version="1.0" encoding="UTF-8"?>
<svg xmlns="http://www.w3.org/2000/svg" version="1.1" width="4337.01" height="3401.57" viewBox="0 0 4337.01 3401.57">
  <defs>
    <style>
      .st0 {
        fill: none;
        stroke: #231815;
        stroke-miterlimit: 10;
        stroke-width: .2px;
      }
    </style>
  </defs>
  <polyline class="st0" points="3292.06 908.24 3552.58 1001.99 3514.71 1077.75 3502.63 1158.66 3500.81 1174.13 3496.59 1226.47 3495.54 1264.5 3496.89 1311.05 3501.31 1353.76 3487.28 1355.82 3501.31 1353.76 3501.41 1354.45 3507.54 1389.18 3516.49 1426.91 3519.34 1436.16 3505.84 1440.47 3519.34 1436.16 3530.07 1463.66 3533.18 1470.37 3548.22 1498.31 3554.23 1507.71 3570.04 1528.82 3580.87 1540.82 3600.14 1558.39 3601.92 1559.8 3623.52 1574.75 3625.48 1575.92 3648.43 1587.55 3650.5 1588.41 3674.24 1596.25 3680.31 1597.73 3709.9 1602.53 3748.12 1605.42 3748.11 3044.31 3005.56 3044.31 2263.01 3044.31 2263.01 1605.42 2308 1601.72 2330.81 1597.73 2354.8 1590.67 2360.63 1588.41 2382.25 1577.88 2385.64 1575.92 2407.4 1561.21 2409.2 1559.8 2428.66 1542.44 2430.25 1540.82 2447.47 1520.85 2456.89 1507.71 2472.59 1481.12 2477.95 1470.36 2489.37 1443.13 2491.78 1436.16 2505.28 1440.47 2491.78 1436.16 2500.58 1403.42 2503.58 1389.18 2509.71 1354.45 2509.81 1353.76 2523.84 1355.82 2509.81 1353.76 2513.98 1314.63 2515.59 1268.09 2515.58 1264.5 2513.68 1212 2510.31 1174.13 2501.03 1106.61 2496.42 1077.75 2458.55 1001.99 2719.06 908.24 2750.12 985.441 2760.34 1005.04 2771.03 1019.27 2778.55 1027.24 2795.7 1042.17 2800.29 1045.52 2819.31 1056.93 2824.32 1059.33 2846.75 1067.53 2868.24 1072.81 2900.01 1078.17 2944.17 1082.1 3005.56 1083.86 3005.56 1098.03 3005.56 1083.86 3073.28 1081.73 3111.11 1078.17 3142.88 1072.81 3170.52 1065.62 3186.81 1059.33 3206.24 1048.63 3210.84 1045.52 3228.46 1031.18 3232.57 1027.24 3246.59 1011.2 3250.79 1005.04 3261 985.441 3292.06 908.24"/>
  <polyline class="st0" points="1195.01 1016.02 1202.73 1046.23 1216.34 1090.35 1220.17 1101.25 1236.73 1143.36 1254.65 1181.07 1272.38 1212.09 1274.5 1215.45 1276.7 1218.87 1264.8 1226.57 1276.7 1218.87 1295.03 1244.63 1315.6 1268.69 1329.27 1282.47 1353.03 1303.11 1368.5 1314.64 1395.98 1332.09 1413.57 1341.51 1443.83 1355.57 1443.83 1369.74 1443.83 1355.57 1474.09 1341.51 1502.51 1325.64 1519.16 1314.64 1544.05 1295.38 1558.39 1282.47 1580.29 1259.6 1592.63 1244.63 1610.93 1218.92 1622.82 1226.62 1610.93 1218.92 1613.16 1215.45 1633.01 1181.07 1650.24 1144.96 1667.49 1101.25 1681.8 1057.34 1684.93 1046.23 1692.65 1016.02 1948.21 1107.19 1938.73 1179.19 1934.53 1232.69 1934.32 1237.36 1933.95 1283.7 1934.32 1295.29 1937.63 1338.88 1939.59 1354.11 1925.56 1356.09 1939.59 1354.11 1946.74 1392.52 1950.02 1405.85 1959.92 1437.94 1966.75 1455.56 1979.93 1483.09 1982.34 1487.43 1997.49 1511.16 2001.69 1516.82 2020.23 1538.25 2028.11 1545.95 2047.45 1562.07 2059.08 1570.15 2080.78 1582.45 2086.43 1585.11 2108.05 1593.28 2115.86 1595.48 2139.88 1600.14 2186.38 1605.69 2186.38 3044.31 1443.83 3044.31 701.275 3044.31 701.275 1605.69 747.781 1600.14 771.8 1595.48 793.752 1588.29 801.23 1585.11 823.293 1573.47 828.577 1570.15 848.886 1555.28 859.545 1545.95 879.07 1525.41 885.97 1516.82 901.773 1493.52 905.32 1487.43 918.948 1460.12 920.906 1455.56 932.091 1425.01 937.636 1405.85 945.555 1369.75 948.068 1354.11 962.103 1356.09 948.068 1354.11 952.372 1312.99 953.335 1295.29 953.708 1248.94 953.335 1237.36 949.415 1183.83 948.925 1179.19 939.449 1107.19 1195.01 1016.02"/>
  <polyline class="st0" points="2180.41 752.403 2116.71 840.277 2180.41 928.152 1672.73 928.152 1672.73 913.978 1672.73 928.152 1413.92 928.152 1413.92 913.978 1413.92 928.152 1155.12 928.152 1155.12 913.978 1155.12 928.152 647.435 928.152 711.139 840.277 647.435 752.403 1155.12 752.403 1155.12 766.576 1155.12 752.403 1413.92 752.403 1413.92 766.576 1413.92 752.403 1672.73 752.403 1672.73 766.576 1672.73 752.403 2180.41 752.403"/>
</svg>
