<?xml version="1.0" encoding="UTF-8"?>
<svg xmlns="http://www.w3.org/2000/svg" version="1.1" width="4478.74" height="3401.57" viewBox="0 0 4478.74 3401.57">
  <defs>
    <style>
      .st0 {
        fill: none;
        stroke: #231815;
        stroke-miterlimit: 10;
        stroke-width: .2px;
      }
    </style>
  </defs>
  <polyline class="st0" points="4232.89 3000.89 3291.77 3000.89 2350.65 3000.89 2350.65 1433.89 2384.56 1429.14 2404 1427.81 2409.54 1427.3 2414.4 1426.8 2424.13 1425.66 2435.58 1424.06 2452.07 1421.25 2460 1419.67 2473.75 1416.55 2481.36 1414.62 2494.49 1410.9 2501.77 1408.63 2514.32 1404.33 2541.99 1393.01 2572.05 1377.32 2574.58 1375.82 2602.15 1357.48 2625.9 1338.26 2640.68 1324.31 2650.71 1334.33 2640.68 1324.31 2663.22 1299.52 2666.67 1295.29 2687.53 1266.81 2701.05 1245.11 2718.45 1211.95 2727.72 1190.95 2740.58 1155.93 2747.18 1134.03 2758.52 1086.93 2760.98 1075.07 2769.18 1031.4 2769.28 1030.81 2783.26 1033.13 2769.28 1030.81 2775.75 983.417 2778.26 954.208 2779.78 906.475 2779.62 889.694 2776.63 829.782 2776.23 824.581 2768.27 745.196 2758.3 666.006 3015.31 592.655 3038.46 635.728 3044.08 644.873 3057.84 664.259 3071.95 679.299 3086.27 690.465 3103.02 699.431 3124.17 707.036 3151.06 713.139 3183.25 717.215 3227.79 718.992 3291.77 720.524 3355.76 718.992 3400.3 717.215 3432.49 713.139 3459.38 707.036 3480.53 699.431 3497.27 690.465 3511.6 679.299 3525.71 664.259 3539.47 644.873 3557.83 612.806 3568.23 592.655 3825.25 666.006 3811.08 783.264 3807.32 824.581 3804.08 883.175 3803.93 889.694 3804.4 937.45 3805.29 954.208 3810.02 1002.18 3814.37 1031.4 3800.39 1033.73 3814.37 1031.4 3822.56 1075.07 3834.16 1125.85 3836.37 1134.03 3848.04 1170.73 3855.83 1190.95 3871.5 1224.96 3882.5 1245.11 3901.52 1274.85 3916.88 1295.29 3939.04 1320.42 3942.86 1324.31 3932.83 1334.33 3942.86 1324.31 3957.65 1338.26 3983.45 1358.99 4008.96 1375.82 4038.88 1391.76 4041.55 1393.01 4069.23 1404.33 4081.78 1408.63 4089.06 1410.9 4102.19 1414.62 4109.8 1416.55 4123.55 1419.67 4131.48 1421.25 4147.97 1424.06 4159.41 1425.66 4169.15 1426.8 4174.01 1427.3 4179.54 1427.81 4198.99 1429.14 4232.89 1433.89 4232.89 3000.89"/>
  <polyline class="st0" points="2259.94 2998.84 1318.82 2998.81 377.703 2998.81 377.703 1431.5 411.666 1427.07 431.053 1425.74 441.472 1424.73 456.5 1422.89 464.751 1421.67 479.132 1419.18 487.045 1417.6 500.816 1414.48 528.854 1406.54 541.404 1402.25 565.492 1392.54 594.669 1377.79 601.738 1373.67 629.267 1355.35 652.98 1336.16 667.763 1322.21 677.793 1332.22 667.763 1322.21 690.295 1297.41 693.746 1293.18 714.605 1264.7 728.121 1242.99 745.517 1209.83 754.783 1188.84 767.641 1153.81 774.242 1131.91 785.579 1084.81 788.045 1072.95 796.197 1029.52 796.296 1028.93 810.277 1031.25 796.296 1028.93 802.795 981.389 805.31 952.09 806.834 904.36 806.672 887.581 803.679 827.671 803.278 822.47 795.328 743.118 785.358 663.961 1047.44 588.527 1069.09 658.865 1090.54 720.207 1112.69 774.756 1135.39 822.904 1160.38 868.994 1187.03 911.926 1215.26 951.925 1244.9 988.668 1276.93 1023.6 1318.86 1064.28 1360.79 1023.6 1392.82 988.671 1422.46 951.929 1450.69 911.931 1477.35 869 1502.34 822.911 1525.04 774.764 1547.19 720.216 1568.64 658.875 1590.29 588.538 1852.38 663.981 1838.21 781.19 1834.45 822.49 1831.21 881.081 1831.05 887.6 1831.53 935.352 1832.41 952.109 1837.16 1000.23 1841.52 1029.54 1827.54 1031.87 1841.52 1029.54 1849.67 1072.97 1861.26 1123.75 1863.48 1131.93 1875.14 1168.63 1882.93 1188.86 1898.59 1222.87 1909.59 1243.01 1928.61 1272.76 1943.97 1293.2 1966.12 1318.34 1969.95 1322.23 1959.92 1332.24 1969.95 1322.23 1984.73 1336.18 2010.5 1356.88 2035.97 1373.7 2064.79 1389.14 2072.22 1392.56 2096.3 1402.27 2108.85 1406.57 2136.89 1414.51 2150.66 1417.63 2158.57 1419.21 2172.96 1421.7 2181.21 1422.92 2196.23 1424.76 2206.65 1425.78 2226.04 1427.1 2260 1431.53 2259.94 2998.84"/>
</svg>
