<?xml version="1.0" encoding="UTF-8"?>
<svg xmlns="http://www.w3.org/2000/svg" version="1.1" width="4337.01" height="3401.57" viewBox="0 0 4337.01 3401.57">
  <defs>
    <style>
      .st0 {
        fill: none;
        stroke: #231815;
        stroke-miterlimit: 10;
        stroke-width: .2px;
      }
    </style>
  </defs>
  <polyline class="st0" points="3278.97 938.973 3533.6 1033.22 3495.84 1108.75 3484.19 1185.5 3482.43 1200.17 3478.13 1253.26 3477.21 1285.91 3478.36 1330.03 3482.45 1370.49 3468.43 1372.53 3482.45 1370.49 3482.57 1371.28 3488.69 1405.95 3496.77 1440.84 3500.47 1452.85 3487 1457.25 3500.47 1452.85 3510.74 1478.32 3513.7 1484.52 3528.01 1510.35 3533.69 1519.04 3549.14 1539.1 3558.82 1549.55 3576.53 1565.36 3578.61 1566.98 3598.4 1580.39 3600.7 1581.73 3622.17 1592.3 3624.1 1593.07 3646.28 1600.12 3651.94 1601.42 3679.52 1605.58 3715.1 1607.85 3715.1 3018.59 3000.89 3018.59 2286.68 3018.59 2286.68 1607.85 2328.57 1604.89 2349.83 1601.42 2372.22 1595.12 2377.67 1593.07 2399.27 1582.75 2401.08 1581.73 2421.05 1568.59 2423.17 1566.98 2441.08 1551.41 2442.95 1549.55 2459.19 1531.16 2468.09 1519.04 2482.59 1495.17 2488.07 1484.52 2499.72 1457.38 2501.3 1452.85 2514.78 1457.25 2501.3 1452.85 2509.28 1423.96 2513.09 1405.95 2519.21 1371.28 2519.32 1370.49 2533.35 1372.53 2519.32 1370.49 2523.19 1333.41 2524.57 1287.61 2524.56 1285.91 2522.63 1236.1 2519.35 1200.17 2510.67 1137.95 2505.93 1108.75 2468.18 1033.22 2722.8 938.973 2754.01 1016.54 2763.8 1035.83 2774.13 1049.87 2781.41 1057.75 2798.04 1072.55 2802.5 1075.88 2821.01 1087.25 2825.89 1089.64 2847.77 1097.9 2868.75 1103.29 2899.8 1108.87 2942.08 1112.92 3000.89 1114.81 3000.89 1128.99 3000.89 1114.81 3065.76 1112.54 3101.97 1108.87 3133.02 1103.29 3160.01 1095.97 3175.89 1089.64 3194.81 1078.97 3199.27 1075.88 3216.39 1061.66 3220.37 1057.75 3233.93 1041.91 3237.97 1035.83 3247.77 1016.54 3278.97 938.973"/>
  <polyline class="st0" points="1210.79 1046.77 1218.32 1075.8 1231.57 1118.18 1235.29 1128.65 1251.38 1169.1 1268.75 1205.29 1287.97 1238.29 1290.66 1242.42 1278.8 1250.19 1290.66 1242.42 1307.82 1266.28 1327.69 1289.35 1340.89 1302.55 1363.82 1322.31 1378.74 1333.35 1405.24 1350.03 1422.18 1359.03 1451.34 1372.43 1451.34 1386.61 1451.34 1372.43 1480.5 1359.03 1507.88 1343.86 1523.94 1333.35 1547.95 1314.91 1561.78 1302.55 1582.93 1280.63 1594.86 1266.28 1611.93 1242.55 1623.78 1250.32 1611.93 1242.55 1614.71 1238.29 1633.93 1205.29 1650.62 1170.63 1667.38 1128.65 1682.24 1083.28 1684.35 1075.8 1691.89 1046.77 1941.55 1138.38 1932.48 1206.18 1928.46 1255.48 1928.21 1260.97 1927.84 1307.9 1928.09 1315.54 1931.11 1356.61 1932.93 1370.97 1918.9 1372.92 1932.93 1370.97 1939.65 1407.19 1942.74 1419.77 1953.41 1453.76 1958.49 1466.65 1971.87 1494.39 1973.17 1496.73 1987.45 1519.12 1991.41 1524.45 2008.36 1544.14 2016.31 1551.94 2036.33 1568.48 2045.5 1574.79 2067.55 1587.17 2071.29 1588.91 2093.36 1597.14 2099.04 1598.71 2121.69 1603.12 2165.55 1608.38 2165.55 3018.59 1451.34 3018.59 737.13 3018.59 737.13 1608.38 780.988 1603.12 803.638 1598.71 825.977 1591.24 831.389 1588.91 852.191 1577.92 857.173 1574.79 878.597 1558.85 886.365 1551.94 904.289 1533.13 911.271 1524.45 926.16 1502.47 929.504 1496.73 943.139 1469.12 944.185 1466.65 954.714 1437.84 959.934 1419.77 967.73 1383.76 969.742 1370.97 983.78 1372.92 969.742 1370.97 973.928 1328.88 974.585 1315.54 974.842 1271.88 974.467 1260.97 970.667 1210.55 970.196 1206.18 961.125 1138.38 1210.79 1046.77"/>
  <polyline class="st0" points="2162.41 778.132 2098.71 866.006 2162.41 953.881 1672.02 953.881 1672.02 939.707 1672.02 953.881 1421.43 953.881 1421.43 939.707 1421.43 953.881 1170.85 953.881 1170.85 939.707 1170.85 953.881 680.456 953.881 744.159 866.006 680.456 778.132 1170.85 778.132 1170.85 792.305 1170.85 778.132 1421.43 778.132 1421.43 792.305 1421.43 778.132 1672.02 778.132 1672.02 792.305 1672.02 778.132 2162.41 778.132"/>
</svg>
