<?xml version="1.0" encoding="UTF-8"?>
<svg xmlns="http://www.w3.org/2000/svg" version="1.1" width="4478.74" height="3401.57" viewBox="0 0 4478.74 3401.57">
  <defs>
    <style>
      .st0 {
        fill: none;
        stroke: #231815;
        stroke-miterlimit: 10;
        stroke-width: .2px;
      }
    </style>
  </defs>
  <polyline class="st0" points="3907.82 2762.78 3193.47 2762.78 2479.12 2762.78 2479.12 1242.05 2504.76 1237.65 2519.49 1236.19 2523.69 1235.67 2527.37 1235.18 2534.73 1234.09 2543.39 1232.61 2555.84 1230.09 2561.82 1228.7 2572.2 1226.02 2577.93 1224.37 2587.81 1221.25 2593.28 1219.35 2602.71 1215.79 2623.47 1206.55 2647.81 1192.74 2670.59 1176.36 2685.91 1163.03 2696.81 1152.09 2707.2 1161.73 2696.81 1152.09 2715.35 1129.71 2731.49 1105.53 2739.54 1091.3 2752.96 1062.75 2757.87 1050.15 2767.88 1018.47 2770.74 1007.15 2779.34 962.788 2784.2 929.989 2798.24 931.928 2784.2 929.989 2789.88 880.235 2790.43 872.104 2791.21 833.441 2790.99 823.772 2787.97 775.025 2779.6 701.395 2773.4 656.378 2987.88 578.512 3000.43 616.724 3002.83 622.813 3010.77 639.688 3019.57 653.256 3029.08 663.863 3040.76 673.109 3056.03 681.916 3075.94 690.359 3100.23 697.975 3131.6 705.087 3134.36 705.528 3163.79 708.33 3193.47 709.121 3237.33 707.359 3252.59 705.528 3281.99 699.25 3286.72 697.975 3311 690.359 3330.91 681.916 3346.18 673.109 3357.87 663.863 3367.38 653.256 3376.18 639.688 3384.11 622.813 3395.79 589.259 3399.06 578.512 3613.55 656.378 3601.3 751.235 3598.97 775.025 3595.96 823.772 3596.16 865.347 3596.51 872.104 3601.19 918.444 3602.75 929.989 3588.71 931.928 3602.75 929.989 3607.6 962.788 3616.2 1007.15 3626.09 1041.68 3629.08 1050.15 3642.1 1080.85 3647.4 1091.3 3664.25 1119.32 3671.59 1129.71 3690.14 1152.09 3679.74 1161.73 3690.14 1152.09 3701.04 1163.03 3722.46 1181.12 3739.13 1192.74 3763.48 1206.55 3784.23 1215.79 3793.66 1219.35 3799.13 1221.25 3809.02 1224.37 3814.75 1226.02 3825.12 1228.7 3831.1 1230.09 3843.56 1232.61 3852.22 1234.09 3859.58 1235.18 3863.26 1235.67 3867.45 1236.19 3882.19 1237.65 3907.82 1242.05 3907.82 2762.78"/>
  <polyline class="st0" points="1934.87 2760.73 1220.52 2760.69 506.181 2760.7 506.18 1239.67 531.861 1235.52 546.549 1234.07 554.436 1233.06 565.802 1231.32 572.038 1230.2 582.898 1227.98 588.869 1226.59 599.252 1223.91 620.354 1217.24 629.783 1213.69 647.846 1205.76 672.829 1191.93 674.929 1190.6 697.669 1174.25 712.966 1160.94 723.866 1150.01 724.325 1149.51 734.731 1159.14 724.325 1149.51 742.405 1127.62 758.544 1103.45 766.592 1089.22 780.007 1060.67 784.915 1048.08 794.921 1016.39 797.788 1005.08 806.386 960.723 811.217 928.109 825.256 930.05 811.217 928.109 816.924 878.197 817.484 870.041 818.262 831.376 818.038 821.706 815.025 772.955 806.656 699.346 800.455 654.342 1016.55 575.244 1032.62 628.998 1048.6 675.893 1065.15 717.613 1082.16 754.457 1100.93 789.746 1120.99 822.638 1142.27 853.303 1164.64 881.495 1188.84 908.321 1220.56 939.586 1252.28 908.322 1276.48 881.497 1298.86 853.306 1320.13 822.642 1340.19 789.751 1358.96 754.463 1375.98 717.619 1392.53 675.899 1408.51 629.006 1424.59 575.252 1640.68 654.358 1628.43 749.187 1626.1 772.97 1623.09 821.721 1623.29 863.298 1623.64 870.056 1628.34 916.543 1629.9 928.125 1615.86 930.065 1629.9 928.125 1634.73 960.738 1643.33 1005.09 1653.22 1039.62 1656.2 1048.09 1669.22 1078.79 1674.52 1089.23 1691.36 1117.26 1698.71 1127.64 1717.25 1150.03 1706.85 1159.66 1717.25 1150.03 1728.15 1160.96 1749.54 1179.02 1766.18 1190.62 1791.03 1204.69 1793.26 1205.78 1811.33 1213.71 1820.76 1217.26 1841.86 1223.93 1852.24 1226.62 1858.21 1228 1869.07 1230.22 1875.31 1231.34 1886.67 1233.08 1894.56 1234.09 1909.25 1235.55 1934.93 1239.69 1934.87 2760.73"/>
</svg>
