<?xml version="1.0" encoding="UTF-8"?>
<svg xmlns="http://www.w3.org/2000/svg" version="1.1" width="4337.01" height="3401.57" viewBox="0 0 4337.01 3401.57">
  <defs>
    <style>
      .st0 {
        fill: none;
        stroke: #231815;
        stroke-miterlimit: 10;
        stroke-width: .2px;
      }
    </style>
  </defs>
  <polyline class="st0" points="3595.36 712.431 3902.7 802.981 3864.04 880.315 3850.17 980.901 3846.32 1016.36 3841.99 1074.89 3840.56 1136.12 3840.62 1143.78 3842.87 1199.4 3848.09 1252.26 3850.53 1269.8 3836.51 1271.9 3850.53 1269.8 3850.62 1270.38 3856.81 1305.4 3867.63 1349.02 3868.71 1352.77 3855.11 1356.76 3868.71 1352.77 3881.97 1393.27 3887.36 1407.23 3903.43 1442.56 3916.99 1467.19 3935.92 1496.06 3955.69 1521.02 3978.37 1544.63 3986.87 1552.37 4012.67 1572.89 4022.21 1579.48 4049.96 1595.99 4060.12 1601.05 4088.11 1612.5 4105.78 1618.09 4138.89 1625.85 4187.38 1633.11 4210.75 1635.81 4210.75 3300.6 3241.42 3300.6 2272.09 3300.6 2272.09 1635.81 2333.48 1627.73 2368.85 1620.32 2377.06 1618.09 2405.71 1608.42 2422.72 1601.05 2450.34 1586.07 2460.63 1579.48 2487.14 1559.87 2495.97 1552.37 2519.45 1529.57 2527.15 1521.02 2548.47 1493.9 2565.85 1467.19 2582.4 1436.57 2595.48 1407.23 2609.09 1369.3 2614.13 1352.77 2627.73 1356.76 2614.13 1352.77 2625.23 1309.22 2626.03 1305.4 2632.22 1270.38 2632.31 1269.8 2646.33 1271.9 2632.31 1269.8 2638.57 1217.06 2641.84 1161.49 2642.21 1143.78 2641.43 1087.63 2637.24 1023.98 2636.52 1016.36 2627.03 937.363 2618.8 880.314 2580.14 802.981 2887.48 712.431 2917.58 787.263 2931.15 809.308 2944.84 825.038 2954.29 833.723 2973.91 848.636 2981.22 853.267 3002.6 864.254 3010.45 867.395 3033.14 874.175 3062.9 879.474 3100.47 883.081 3162.41 885.836 3241.42 886.646 3241.42 900.819 3241.42 886.646 3334.52 885.443 3382.37 883.081 3419.95 879.474 3450.75 873.925 3472.39 867.395 3493.14 858.068 3501.62 853.267 3521.86 839.24 3528.55 833.723 3544.06 818.695 3551.69 809.309 3565.26 787.263"/>
  <polyline class="st0" points="840.289 820.187 849.505 859.901 863.762 910.765 870.718 932.327 888.618 981.516 908.534 1027.42 913.495 1037.65 935.18 1077.71 937.21 1081.11 925.076 1088.44 937.21 1081.11 938.453 1083.17 960.587 1116.64 964.449 1121.91 988.872 1151.96 1008.13 1172.36 1036.55 1198.32 1058.48 1215.54 1088.05 1235.56 1116.62 1251.97 1155.77 1271.21 1155.77 1285.38 1155.77 1271.21 1194.93 1251.97 1229.31 1231.89 1253.07 1215.54 1283.06 1191.4 1303.42 1172.36 1329.67 1143.88 1347.1 1121.91 1368.18 1091.11 1373.1 1083.17 1374.34 1081.11 1386.47 1088.44 1374.34 1081.11 1394.94 1043.85 1398.05 1037.65 1417.79 994.166 1437.16 943.1 1440.83 932.327 1457.09 878.884 1462.04 859.901 1471.26 820.187 1773.53 908.486 1761.66 1005.52 1760.82 1013.98 1756.17 1076.98 1755.3 1099.16 1755.09 1153.42 1756.23 1183.92 1760.6 1237.34 1764.88 1269.91 1750.87 1272.05 1764.88 1269.91 1773.45 1316.76 1780.29 1345.14 1791.79 1383.14 1804.86 1417.38 1821.22 1451.92 1827.68 1463.69 1845.11 1491.45 1855.97 1506.35 1877.48 1531.66 1894.55 1548.62 1920.01 1569.93 1939.72 1583.69 1964.85 1598.23 1979.58 1605.32 2005.86 1615.49 2022.44 1620.28 2054.59 1626.53 2057.41 1626.95 2125.1 1634.81 2125.1 3300.6 1155.77 3300.6 186.448 3300.6 186.448 1634.81 254.138 1626.95 285.646 1621.12 289.104 1620.28 315.986 1611.88 331.972 1605.32 357.864 1592.17 371.832 1583.69 398.774 1564.31 416.997 1548.62 440.244 1524.89 455.578 1506.35 473.808 1480.35 483.867 1463.69 500.408 1431.55 506.689 1417.38 520.735 1380.25 531.256 1345.14 541.194 1301.71 546.67 1269.91 560.68 1272.05 546.67 1269.91 553.01 1216.69 555.32 1183.92 556.714 1131.38 556.247 1099.16 552.698 1036.09 550.728 1013.98 539.412 919.022 538.018 908.486"/>
  <polyline class="st0" points="2126.36 496.122 2062.66 583.996 2126.36 671.871 1480.34 671.871 1480.34 657.697 1480.34 671.871 1155.77 671.871 1155.77 657.697 1155.77 671.871 831.207 671.871 831.207 657.697 831.207 671.871 185.19 671.871 248.893 583.996 185.19 496.122 831.207 496.122 831.207 510.295 831.207 496.122 1155.77 496.122 1155.77 510.295 1155.77 496.122 1480.34 496.122 1480.34 510.295 1480.34 496.122"/>
</svg>
