<?xml version="1.0" encoding="UTF-8"?>
<svg xmlns="http://www.w3.org/2000/svg" version="1.1" width="4478.74" height="3401.57" viewBox="0 0 4478.74 3401.57">
  <defs>
    <style>
      .st0 {
        fill: none;
        stroke: #231815;
        stroke-miterlimit: 10;
        stroke-width: .2px;
      }
    </style>
  </defs>
  <polyline class="st0" points="4162.94 2889.27 3193.48 2889.27 2224.01 2889.27 2224.01 1316.52 2258.94 1311.72 2278.98 1310.4 2284.68 1309.89 2289.69 1309.39 2299.72 1308.25 2311.52 1306.64 2328.51 1303.79 2336.68 1302.18 2350.85 1299.01 2358.7 1297.04 2372.23 1293.25 2379.73 1290.93 2392.67 1286.54 2421.21 1274.95 2450.24 1260.02 2454.83 1257.34 2483.28 1238.54 2507.79 1218.81 2523.06 1204.48 2533.06 1214.53 2523.06 1204.48 2546.4 1178.98 2549.98 1174.63 2571.61 1145.32 2585.64 1122.98 2603.71 1088.83 2613.35 1067.19 2626.75 1031.1 2633.64 1008.53 2645.51 959.973 2648.1 947.745 2656.72 902.713 2656.82 902.103 2670.79 904.456 2656.82 902.103 2663.55 853.237 2666.15 823.112 2667.76 773.886 2667.61 756.579 2664.88 698.813 2664.17 689.424 2656.04 607.545 2645.83 525.868 2908.28 452.914 2932.17 495.785 2938.74 506.142 2953.22 525.852 2967.99 541.085 2982.91 552.329 3000.29 561.271 3022.17 568.739 3049.93 574.565 3083.11 578.219 3128.95 579.299 3193.48 580.554 3258 579.299 3303.84 578.219 3337.03 574.565 3364.78 568.739 3386.67 561.271 3404.04 552.329 3418.97 541.085 3433.73 525.852 3448.21 506.142 3467.63 473.466 3478.67 452.914 3741.12 525.868 3727.98 633.715 3722.78 689.424 3719.46 751.2 3719.34 756.579 3719.88 805.829 3720.81 823.112 3725.7 872.583 3730.24 902.713 3716.26 905.076 3730.24 902.713 3738.85 947.745 3751 1000.09 3753.31 1008.53 3765.49 1046.36 3773.6 1067.19 3789.89 1102.23 3801.32 1122.98 3821.05 1153.6 3836.97 1174.63 3859.93 1200.48 3863.89 1204.48 3853.89 1214.53 3863.89 1204.48 3879.16 1218.81 3905.8 1240.08 3932.12 1257.34 3960.93 1272.71 3965.74 1274.95 3994.28 1286.54 4007.22 1290.93 4014.72 1293.25 4028.26 1297.04 4036.1 1299.01 4050.28 1302.18 4058.44 1303.79 4075.44 1306.64 4087.23 1308.25 4097.26 1309.39 4102.27 1309.89 4107.97 1310.4 4128.01 1311.72 4162.94 1316.52 4162.94 2889.27"/>
  <polyline class="st0" points="2189.99 2887.22 1220.53 2887.19 251.058 2887.18 251.059 1314.12 286.053 1309.65 306.028 1308.34 316.763 1307.33 332.246 1305.48 340.749 1304.24 355.569 1301.72 363.724 1300.11 377.918 1296.94 406.82 1288.85 419.76 1284.46 444.599 1274.52 474.694 1259.41 481.987 1255.19 510.397 1236.4 534.876 1216.7 550.141 1202.37 560.141 1212.41 550.141 1202.37 573.482 1176.86 577.059 1172.52 598.687 1143.21 612.711 1120.85 630.783 1086.7 640.42 1065.07 653.817 1028.97 660.706 1006.4 672.573 957.844 675.165 945.615 683.734 900.831 683.837 900.219 697.812 902.575 683.837 900.219 690.599 851.204 693.202 820.986 694.813 771.764 694.665 754.459 691.928 696.696 691.224 687.307 683.095 605.464 672.885 523.821 940.703 448.743 963.05 521.162 985.179 584.318 1008.03 640.477 1031.44 690.044 1057.21 737.49 1084.69 781.682 1113.79 822.854 1144.34 860.671 1177.35 896.622 1220.56 938.479 1263.78 896.623 1296.78 860.674 1327.34 822.858 1356.44 781.688 1383.92 737.495 1409.69 690.052 1433.11 640.485 1455.96 584.327 1478.09 521.173 1500.44 448.754 1768.26 523.841 1755.12 631.642 1749.91 687.328 1746.58 749.101 1746.47 754.479 1747 803.725 1747.93 821.006 1752.84 870.629 1757.39 900.851 1743.42 903.216 1757.39 900.851 1765.96 945.635 1778.1 997.986 1780.42 1006.42 1792.59 1044.26 1800.7 1065.09 1816.99 1100.13 1828.41 1120.88 1848.13 1151.51 1864.06 1172.54 1887.02 1198.39 1890.97 1202.4 1880.97 1212.44 1890.97 1202.4 1906.24 1216.72 1932.84 1237.97 1959.13 1255.22 1988.86 1271.05 1996.51 1274.55 2021.35 1284.49 2034.29 1288.88 2063.19 1296.97 2077.39 1300.15 2085.54 1301.75 2100.36 1304.28 2108.86 1305.51 2124.35 1307.36 2135.08 1308.38 2155.06 1309.69 2190.05 1314.16 2189.99 2887.22"/>
</svg>
