<?xml version="1.0" encoding="UTF-8"?>
<svg xmlns="http://www.w3.org/2000/svg" version="1.1" width="4337.01" height="3401.57" viewBox="0 0 4337.01 3401.57">
  <defs>
    <style>
      .st0 {
        fill: none;
        stroke: #231815;
        stroke-miterlimit: 10;
        stroke-width: .2px;
      }
    </style>
  </defs>
  <polyline class="st0" points="3251.49 964.458 3500.21 1059.22 3462.57 1134.52 3451.12 1208.83 3449.64 1220.98 3445.43 1271.19 3444.48 1302.09 3445.42 1343.84 3449.21 1382.13 3435.18 1384.15 3449.21 1382.13 3449.32 1382.87 3455.43 1417.47 3463.42 1452.33 3467.19 1464.28 3453.74 1468.77 3467.19 1464.28 3476.99 1487.72 3479.82 1493.42 3494.58 1519 3498.74 1525.11 3514.75 1545.11 3522.37 1553.02 3540.89 1568.9 3561.51 1582.27 3581.51 1591.78 3583.3 1592.48 3603.9 1598.72 3609.16 1599.85 3634.72 1603.35 3667.67 1605.01 3667.67 2987.62 2981.81 2987.62 2295.94 2987.62 2295.94 1605.01 2334.73 1602.8 2354.45 1599.85 2376.77 1593.77 2380.31 1592.48 2400.41 1583.2 2402.1 1582.27 2422.72 1568.9 2441.24 1553.02 2456.95 1535.64 2464.87 1525.11 2479.29 1501.91 2483.79 1493.42 2494.91 1468.46 2496.42 1464.28 2509.87 1468.77 2496.42 1464.28 2504 1437.36 2508.18 1417.47 2514.29 1382.87 2514.4 1382.13 2528.43 1384.15 2514.4 1382.13 2517.99 1347.04 2519.13 1302.09 2516.92 1251.72 2513.97 1220.98 2504.48 1155.23 2501.04 1134.52 2463.4 1059.22 2712.12 964.458 2743.49 1042.41 2752.87 1061.39 2762.82 1075.25 2769.86 1083.04 2785.99 1097.69 2790.31 1101 2808.31 1112.33 2813.06 1114.73 2834.39 1123.04 2854.86 1128.55 2885.2 1134.34 2925.58 1138.5 2981.81 1140.53 2981.81 1154.71 2981.81 1140.53 3043.83 1138.1 3078.41 1134.34 3108.75 1128.55 3135.08 1121.09 3150.55 1114.73 3168.96 1104.08 3173.3 1101 3189.89 1086.9 3193.75 1083.04 3206.85 1067.39 3210.74 1061.39 3220.12 1042.41 3251.49 964.458"/>
  <polyline class="st0" points="1240.96 1072.28 1248.31 1100.13 1262.27 1143.8 1264.82 1150.82 1282.39 1194 1297.25 1224.28 1315.83 1255.9 1319.03 1260.74 1307.21 1268.57 1319.03 1260.74 1335.01 1282.7 1354.84 1305.46 1366.91 1317.4 1389.75 1336.86 1403.38 1346.82 1428.89 1362.74 1445.2 1371.31 1473.25 1384.07 1473.25 1398.25 1473.25 1384.07 1501.31 1371.31 1528.49 1356.35 1543.13 1346.82 1566.98 1328.61 1579.6 1317.4 1600.61 1295.73 1611.5 1282.7 1627.48 1260.74 1639.29 1268.57 1627.48 1260.74 1630.68 1255.9 1649.26 1224.28 1667.37 1186.65 1681.69 1150.82 1696.14 1107.3 1698.2 1100.13 1705.55 1072.28 1949.31 1164.34 1940.64 1227.95 1936.75 1274.2 1936.5 1279.35 1936.05 1323.4 1936.27 1330.57 1939.35 1372.23 1940.69 1382.6 1926.64 1384.5 1940.69 1382.6 1946.97 1416.64 1949.87 1428.46 1960.2 1461.28 1964.64 1472.53 1977.19 1498.6 1978.42 1500.8 1992.92 1523.36 1995.53 1526.86 2012.42 1546.38 2018.92 1552.71 2038.85 1569.08 2046.33 1574.2 2067.04 1585.85 2070.55 1587.48 2091.29 1595.24 2096.62 1596.71 2117.91 1600.87 2159.12 1605.84 2159.12 2987.62 1473.25 2987.62 787.394 2987.62 787.394 1605.84 828.604 1600.87 849.884 1596.71 870.871 1589.68 875.955 1587.48 896.908 1576.27 900.175 1574.2 919.764 1559.66 927.591 1552.71 945.32 1533.96 950.978 1526.86 965.911 1504.58 968.093 1500.8 980.888 1474.85 981.869 1472.53 993.111 1441 996.637 1428.46 1003.95 1394.61 1005.82 1382.6 1019.87 1384.5 1005.82 1382.6 1009.6 1344.14 1010.24 1330.57 1010.28 1286.52 1010 1279.35 1006.32 1232.05 1005.87 1227.95 997.203 1164.34 1240.96 1072.28"/>
  <polyline class="st0" points="2158.82 809.096 2095.11 896.97 2158.82 984.845 1685.71 984.845 1685.71 970.671 1685.71 984.845 1443.35 984.845 1443.35 970.671 1443.35 984.845 1200.99 984.845 1200.99 970.671 1200.99 984.845 727.884 984.845 791.587 896.97 727.884 809.096 1200.99 809.096 1200.99 823.269 1200.99 809.096 1443.35 809.096 1443.35 823.269 1443.35 809.096 1685.71 809.096 1685.71 823.269 1685.71 809.096 2158.82 809.096"/>
</svg>
