<?xml version="1.0" encoding="UTF-8"?>
<svg xmlns="http://www.w3.org/2000/svg" version="1.1" width="4478.74" height="3401.57" viewBox="0 0 4478.74 3401.57">
  <defs>
    <style>
      .st0 {
        fill: none;
        stroke: #231815;
        stroke-miterlimit: 10;
        stroke-width: .2px;
      }
    </style>
  </defs>
  <polyline class="st0" points="3879.47 2748.77 3193.47 2748.77 2507.47 2748.77 2507.47 1233.86 2532.07 1229.51 2546.21 1228.03 2550.24 1227.51 2553.77 1227.02 2560.83 1225.94 2569.14 1224.47 2581.09 1221.99 2586.83 1220.62 2596.78 1217.99 2602.27 1216.38 2611.75 1213.33 2617 1211.48 2626.03 1208.02 2645.92 1199.03 2669.23 1185.65 2692.46 1168.62 2705.67 1156.92 2716.08 1146.36 2726.55 1155.92 2716.08 1146.36 2733.69 1124.8 2750.32 1099.3 2756.62 1087.86 2769.93 1058.84 2773.91 1048.34 2783.93 1015.43 2785.96 1007.07 2793.91 964.538 2798.35 933.096 2812.4 934.967 2798.35 933.096 2803.95 882.082 2804.24 877.63 2804.87 837.808 2804.69 831.324 2801.73 784.627 2793.59 714.1 2787.57 670.981 2996.93 592.3 3007.96 629.675 3010.11 635.642 3017.3 652.218 3025.42 665.617 3034.32 676.169 3045.36 685.467 3059.9 694.445 3078.93 703.207 3102.22 711.296 3130.41 718.733 3135.05 719.615 3160.58 722.515 3193.47 723.447 3232.2 722.094 3251.89 719.615 3278.23 713.259 3284.72 711.296 3308.02 703.207 3327.05 694.445 3341.58 685.467 3352.62 676.169 3361.52 665.617 3369.65 652.218 3376.83 635.642 3387.88 600.18 3390.01 592.3 3599.37 670.981 3587.48 761.839 3585.22 784.627 3582.25 831.324 3582.38 871.156 3582.71 877.63 3587.14 922.029 3588.59 933.096 3574.54 934.967 3588.59 933.096 3593.03 964.538 3600.98 1007.07 3610.23 1040.21 3613.04 1048.34 3625.31 1077.82 3630.33 1087.86 3645.8 1114.08 3653.25 1124.8 3670.86 1146.36 3660.4 1155.92 3670.86 1146.36 3681.28 1156.92 3703.25 1175.53 3717.71 1185.65 3741.03 1199.03 3760.91 1208.02 3769.95 1211.48 3775.2 1213.33 3784.67 1216.38 3790.17 1217.99 3800.12 1220.62 3805.85 1221.99 3817.8 1224.47 3826.11 1225.94 3833.18 1227.02 3836.71 1227.51 3840.73 1228.03 3854.88 1229.51 3879.47 1233.86 3879.47 2748.77"/>
  <polyline class="st0" points="1906.52 2746.72 1220.52 2746.68 534.529 2746.69 534.527 1231.48 559.17 1227.37 573.269 1225.9 580.838 1224.89 591.745 1223.16 597.728 1222.05 608.147 1219.87 613.874 1218.51 623.832 1215.88 644.065 1209.36 653.102 1205.9 670.41 1198.2 693.829 1185.11 696.342 1183.5 719.534 1166.51 732.723 1154.83 743.136 1144.27 753.603 1153.83 743.136 1144.27 760.747 1122.72 777.368 1097.22 783.665 1085.79 796.975 1056.76 800.951 1046.27 810.975 1013.37 813.005 1005.01 820.957 962.48 825.375 931.217 839.424 933.091 825.375 931.217 830.922 881.156 831.287 875.574 831.918 835.75 831.741 829.265 828.777 782.563 820.643 712.055 814.629 668.948 1024.95 589.257 1040.33 640.95 1055.62 686.049 1071.47 726.175 1087.78 761.614 1105.77 795.561 1125.01 827.205 1145.42 856.71 1166.89 883.84 1190.11 909.659 1220.56 939.755 1251.01 909.66 1274.24 883.842 1295.71 856.713 1316.12 827.208 1335.35 795.565 1353.35 761.619 1369.65 726.18 1385.51 686.055 1400.8 640.957 1416.19 589.265 1626.5 668.963 1614.62 759.796 1612.35 782.578 1609.38 829.28 1609.51 869.114 1609.84 875.588 1614.29 920.13 1615.75 931.232 1601.7 933.105 1615.75 931.232 1620.16 962.495 1628.11 1005.03 1637.36 1038.15 1640.17 1046.29 1652.43 1075.76 1657.45 1085.8 1672.92 1112.02 1680.37 1122.73 1697.98 1144.29 1687.51 1153.85 1697.98 1144.29 1708.39 1154.85 1730.32 1173.42 1744.77 1183.52 1768.03 1196.89 1770.7 1198.22 1788.01 1205.93 1797.05 1209.39 1817.28 1215.9 1827.24 1218.53 1832.96 1219.89 1843.38 1222.08 1849.37 1223.18 1860.27 1224.92 1867.84 1225.92 1881.94 1227.39 1906.58 1231.51 1906.52 2746.72"/>
</svg>
