<?xml version="1.0" encoding="UTF-8"?>
<svg xmlns="http://www.w3.org/2000/svg" version="1.1" width="4337.01" height="3401.57" viewBox="0 0 4337.01 3401.57">
  <defs>
    <style>
      .st0 {
        fill: none;
        stroke: #231815;
        stroke-miterlimit: 10;
        stroke-width: .2px;
      }
    </style>
  </defs>
  <polyline class="st0" points="3606.56 656.358 3919.72 746.578 3880.98 824.082 3866.72 928.335 3862.77 965.087 3858.35 1025.74 3856.94 1086.55 3857.03 1097.13 3859.44 1154.77 3864.91 1209.55 3867.45 1227.72 3853.44 1229.83 3867.45 1227.72 3867.54 1228.32 3873.73 1263.36 3884.57 1307.01 3885.65 1310.77 3872.04 1314.73 3885.65 1310.77 3899.34 1353.14 3904.9 1367.75 3919.66 1400.98 3935.61 1430.54 3955.26 1460.79 3975.81 1486.96 3999.41 1511.72 4008.26 1519.85 4033.63 1540.31 4045.07 1548.33 4072.39 1564.84 4084.59 1571.04 4113.8 1583.12 4132.24 1589.04 4166.8 1597.29 4215.22 1604.8 4241.85 1608.01 4241.84 3301.07 3244.17 3301.07 2246.5 3301.07 2246.5 1608.01 2310.61 1599.3 2347.54 1591.4 2356.11 1589.04 2386 1578.81 2403.76 1571.04 2429.43 1557.16 2443.28 1548.33 2469.45 1528.91 2480.09 1519.85 2504.52 1495.92 2512.54 1486.96 2532.28 1461.91 2552.03 1431.73 2552.74 1430.54 2569.91 1398.47 2583.45 1367.75 2597.85 1326.91 2602.7 1310.77 2616.31 1314.73 2602.7 1310.77 2613.81 1267.17 2614.61 1263.36 2620.8 1228.32 2620.9 1227.72 2634.91 1229.83 2620.9 1227.72 2627.43 1173.07 2630.9 1115.49 2631.31 1097.13 2630.47 1036.31 2626.07 970.351 2625.57 965.087 2615.83 883.21 2607.37 824.082 2568.63 746.578 2881.78 656.358 2911.79 730.948 2925.78 753.3 2939.85 769.217 2949.54 777.99 2969.64 793.03 2977.12 797.691 2998.99 808.718 3007.01 811.857 3031.25 818.833 3060.53 823.757 3098.83 827.141 3171.43 829.874 3244.17 830.427 3244.17 844.6 3244.17 830.427 3340.17 829.341 3389.52 827.141 3427.82 823.757 3459.24 818.344 3481.34 811.857 3502.54 802.516 3511.23 797.691 3531.94 783.559 3538.8 777.99 3554.72 762.802 3562.56 753.3 3576.55 730.948"/>
  <polyline class="st0" points="827.418 764.12 836.825 805.026 851.396 857.421 858.512 879.635 876.839 930.314 897.247 977.616 902.334 988.16 924.229 1028.86 926.276 1032.31 914.12 1039.6 926.276 1032.31 927.934 1035.07 950.651 1069.57 954.617 1075.01 979.699 1106 999.479 1127.04 1028.69 1153.83 1051.23 1171.6 1081.63 1192.27 1111.01 1209.22 1151.28 1229.12 1151.28 1243.29 1151.28 1229.12 1191.55 1209.22 1223.33 1190.76 1251.33 1171.6 1282.16 1146.69 1303.08 1127.04 1330.05 1097.67 1347.94 1075.01 1369.59 1043.25 1374.63 1035.07 1376.29 1032.31 1388.44 1039.6 1376.29 1032.31 1397.99 992.658 1400.23 988.16 1420.46 943.348 1439.53 892.949 1444.05 879.635 1460.68 824.58 1465.74 805.026 1475.14 764.12 1783.21 852.12 1770.97 952.998 1770.1 961.792 1765.33 1027.29 1764.44 1050.35 1764.26 1106.75 1765.48 1138.46 1770.09 1193.98 1774.56 1227.84 1760.55 1229.99 1774.56 1227.84 1783.48 1276.51 1790.59 1306 1802.55 1345.49 1816.14 1381.06 1833.15 1416.94 1839.86 1429.17 1857.98 1458.02 1869.27 1473.5 1891.63 1499.79 1909.37 1517.41 1932.99 1537.38 1956.31 1553.83 1982.43 1568.94 1997.73 1576.3 2025.05 1586.86 2042.28 1591.84 2075.69 1598.32 2078.62 1598.76 2143.32 1606.34 2148.95 1606.91 2148.95 3301.07 1151.28 3301.07 153.609 3301.07 153.609 1606.91 223.946 1598.76 256.688 1592.71 260.281 1591.84 288.216 1583.11 304.829 1576.3 330.916 1563.11 346.252 1553.83 371.454 1535.92 393.192 1517.41 417.354 1492.75 433.292 1473.5 452.242 1446.49 462.697 1429.17 480.345 1394.81 486.426 1381.06 501.03 1342.48 511.971 1306 522.305 1260.88 528.007 1227.84 542.016 1229.99 528.007 1227.84 534.316 1176.1 537.08 1138.46 538.578 1083.84 538.122 1050.35 534.771 988.317 532.464 961.792 522.22 874.027 519.35 852.12"/>
  <polyline class="st0" points="2147.38 495.646 2083.67 583.52 2147.38 671.395 1484.07 671.395 1484.07 657.221 1484.07 671.395 1151.28 671.395 1151.28 657.221 1151.28 671.395 818.493 671.395 818.493 657.221 818.493 671.395 155.185 671.395 218.888 583.52 155.185 495.646 818.493 495.646 818.493 509.819 818.493 495.646 1151.28 495.646 1151.28 509.819 1151.28 495.646 1484.07 495.646 1484.07 509.819 1484.07 495.646"/>
</svg>
