<?xml version="1.0" encoding="UTF-8"?>
<svg xmlns="http://www.w3.org/2000/svg" version="1.1" width="4478.74" height="3401.57" viewBox="0 0 4478.74 3401.57">
  <defs>
    <style>
      .st0 {
        fill: none;
        stroke: #231815;
        stroke-miterlimit: 10;
        stroke-width: .2px;
      }
    </style>
  </defs>
  <polyline class="st0" points="4237.2 2915.42 3239.39 2915.42 2241.58 2915.42 2241.58 1336.92 2277.54 1332.07 2298.17 1330.78 2304.04 1330.27 2309.19 1329.77 2319.52 1328.62 2331.66 1326.99 2349.16 1324.1 2357.57 1322.47 2372.17 1319.25 2380.24 1317.24 2394.18 1313.38 2401.91 1311.01 2415.24 1306.53 2444.64 1294.68 2474.55 1279.39 2479.28 1276.65 2508.61 1257.37 2533.89 1237.13 2549.65 1222.43 2550.06 1222.03 2560.02 1232.1 2550.06 1222.03 2573.85 1196.16 2577.5 1191.75 2599.9 1161.61 2614.43 1138.62 2632.06 1105.8 2643.19 1081.21 2657.13 1044.05 2664.31 1020.81 2676.71 970.794 2679.43 958.197 2688.46 911.805 2688.57 911.176 2702.54 913.562 2688.57 911.176 2695.57 860.835 2698.25 829.795 2699.95 779.076 2699.82 761.244 2697.05 701.722 2696.33 692.048 2688.02 607.677 2677.57 523.511 2945.48 450.93 2970.72 494.628 2977.63 505.172 2992.83 525.207 3008.25 540.635 3023.77 551.96 3041.78 560.879 3064.39 568.211 3093.02 573.764 3127.19 576.997 3174.34 577.385 3239.39 578.36 3304.45 577.385 3351.59 576.997 3385.76 573.764 3414.39 568.211 3437.01 560.879 3455.01 551.96 3470.53 540.635 3485.95 525.207 3501.15 505.172 3521.63 471.885 3533.3 450.93 3801.21 523.511 3787.77 634.643 3782.45 692.048 3779.08 755.702 3778.97 761.244 3779.57 811.988 3780.53 829.795 3785.6 880.767 3790.32 911.805 3776.35 914.201 3790.32 911.805 3799.35 958.197 3812.06 1012.12 3814.47 1020.81 3826.71 1058.56 3835.59 1081.21 3852.5 1117.27 3864.35 1138.62 3884.79 1170.13 3901.28 1191.75 3925.04 1218.32 3929.14 1222.43 3919.17 1232.51 3929.14 1222.43 3944.89 1237.13 3969.08 1256.57 3998.34 1275.96 3999.5 1276.65 4029.18 1292.38 4034.15 1294.68 4063.55 1306.53 4076.88 1311.01 4084.6 1313.38 4098.54 1317.24 4106.62 1319.25 4121.22 1322.47 4129.63 1324.1 4147.12 1326.99 4159.27 1328.62 4169.59 1329.77 4174.75 1330.27 4180.62 1330.78 4201.24 1332.07 4237.2 1336.92 4237.2 2915.42"/>
  <polyline class="st0" points="2162.43 2917.08 1164.61 2917.05 166.796 2917.04 166.797 1338.22 202.825 1333.72 223.384 1332.43 234.434 1331.41 250.375 1329.55 259.128 1328.3 274.387 1325.74 282.785 1324.11 297.401 1320.88 327.168 1312.63 340.496 1308.15 366.086 1297.99 397.099 1282.52 404.617 1278.2 433.906 1258.94 459.151 1238.72 474.9 1224.02 475.309 1223.61 485.278 1233.69 475.309 1223.61 499.099 1197.74 502.751 1193.33 525.148 1163.19 539.682 1140.2 558.428 1105.06 568.438 1082.79 582.373 1045.62 589.551 1022.38 601.95 972.359 604.665 959.762 613.652 913.624 627.621 916.023 613.652 913.624 620.758 862.741 623.476 831.365 625.177 780.65 625.04 762.821 622.269 703.302 621.551 693.629 613.243 609.294 602.795 525.165 876.34 450.427 899.385 524.929 922.199 589.899 945.751 647.67 969.874 698.657 996.424 747.459 1024.73 792.913 1054.7 835.257 1086.17 874.149 1120.15 911.119 1164.65 954.159 1209.14 911.12 1243.13 874.152 1274.6 835.261 1304.57 792.919 1332.88 747.466 1359.43 698.664 1383.56 647.678 1407.11 589.908 1429.93 524.939 1452.97 450.438 1726.52 525.186 1713.07 636.27 1707.75 693.649 1704.38 757.299 1704.26 762.841 1704.86 813.58 1705.82 831.386 1710.91 882.513 1715.64 913.645 1701.68 916.043 1715.64 913.645 1724.63 959.783 1737.33 1013.71 1739.74 1022.4 1751.98 1060.15 1760.85 1082.81 1777.76 1118.87 1789.61 1140.22 1810.05 1171.73 1826.53 1193.36 1850.29 1219.93 1854.38 1224.04 1844.41 1234.12 1854.38 1224.04 1870.13 1238.75 1894.29 1258.17 1923.51 1277.54 1924.67 1278.23 1955.31 1294.43 1963.2 1298.02 1988.79 1308.18 2002.11 1312.66 2031.88 1320.92 2046.5 1324.14 2054.89 1325.78 2070.15 1328.33 2078.91 1329.58 2094.85 1331.45 2105.9 1332.46 2126.46 1333.76 2162.48 1338.26 2162.43 2917.08"/>
</svg>
