<?xml version="1.0" encoding="UTF-8"?>
<svg xmlns="http://www.w3.org/2000/svg" version="1.1" width="4478.74" height="3401.57" viewBox="0 0 4478.74 3401.57">
  <defs>
    <style>
      .st0 {
        fill: none;
        stroke: #231815;
        stroke-miterlimit: 10;
        stroke-width: .2px;
      }
    </style>
  </defs>
  <polyline class="st0" points="3903.25 2894.31 3245.59 2894.31 2587.94 2894.31 2587.94 1385.24 2611.5 1380.93 2625.05 1379.43 2628.91 1378.91 2632.29 1378.42 2639.06 1377.34 2647.01 1375.89 2658.46 1373.45 2663.95 1372.11 2673.47 1369.53 2678.74 1367.95 2687.8 1364.98 2692.82 1363.17 2701.47 1359.8 2720.49 1351.08 2742.76 1338.12 2764.94 1321.67 2777.54 1310.37 2787.46 1300.19 2797.99 1309.68 2787.46 1300.19 2804.15 1279.46 2819.86 1254.96 2825.81 1243.99 2838.33 1216.16 2842.06 1206.1 2851.41 1174.57 2853.3 1166.57 2860.61 1125.85 2864.63 1095.77 2878.69 1097.59 2864.63 1095.77 2869.89 1046.98 2870.16 1042.72 2870.7 1004.64 2870.51 998.442 2867.6 953.796 2859.7 886.374 2853.87 845.154 3058.18 765.57 3068.46 804.629 3069.56 807.965 3075.99 824.246 3083.44 837.482 3091.72 847.984 3102.12 857.34 3115.91 866.496 3134.06 875.587 3156.36 884.162 3183.42 892.289 3187.9 893.261 3213.05 896.46 3245.59 897.327 3283.9 896.01 3303.29 893.261 3328.59 886.286 3334.82 884.162 3357.13 875.587 3375.28 866.496 3389.07 857.34 3399.47 847.984 3407.75 837.482 3415.19 824.246 3421.63 807.965 3431.19 773.269 3433.01 765.57 3637.32 845.154 3625.56 934.187 3623.59 953.796 3620.67 998.442 3620.84 1039.18 3621.03 1042.72 3625.61 1088.36 3626.56 1095.77 3612.5 1097.59 3626.56 1095.77 3630.58 1125.85 3637.89 1166.57 3646.5 1198.3 3649.13 1206.1 3660.65 1234.36 3665.38 1243.99 3680.9 1270.55 3687.03 1279.46 3703.72 1300.19 3693.2 1309.68 3703.72 1300.19 3713.65 1310.37 3734.61 1328.33 3748.42 1338.12 3770.7 1351.08 3789.72 1359.8 3798.36 1363.17 3803.38 1364.98 3812.45 1367.95 3817.71 1369.53 3827.24 1372.11 3832.73 1373.45 3844.17 1375.89 3852.13 1377.34 3858.9 1378.42 3862.28 1378.91 3866.14 1379.43 3879.69 1380.93 3903.25 1385.24 3903.25 2894.31"/>
  <polyline class="st0" points="1930.3 2892.26 1272.64 2892.23 614.998 2892.23 614.997 1382.86 638.6 1378.78 652.109 1377.3 659.36 1376.29 669.808 1374.57 675.537 1373.48 685.515 1371.32 690.998 1369.99 700.531 1367.41 719.893 1361.06 728.538 1357.69 745.089 1350.21 769.871 1335.98 792.011 1319.56 804.593 1308.28 814.519 1298.11 825.045 1307.6 814.519 1298.11 831.203 1277.38 846.913 1252.89 852.854 1241.92 865.376 1214.09 869.104 1204.03 878.457 1172.51 880.34 1164.51 887.648 1123.8 891.655 1093.89 905.71 1095.71 891.655 1093.89 896.941 1044.94 897.211 1040.67 897.748 1002.59 897.565 996.389 894.65 951.738 886.752 884.332 880.925 843.122 1085.46 762.799 1100.15 812.433 1114.75 855.739 1129.91 894.274 1145.51 928.311 1162.73 960.918 1181.14 991.316 1200.69 1019.66 1221.25 1045.73 1243.5 1070.55 1272.68 1099.48 1301.86 1070.55 1324.12 1045.74 1344.68 1019.67 1364.23 991.32 1382.64 960.922 1399.87 928.316 1415.46 894.279 1430.62 855.745 1445.23 812.44 1459.92 762.806 1664.45 843.137 1652.69 932.148 1650.72 951.752 1647.8 996.403 1647.97 1037.15 1648.16 1040.68 1653.03 1088.59 1653.71 1093.9 1639.66 1095.73 1653.71 1093.9 1657.72 1123.82 1665.02 1164.52 1673.63 1196.25 1676.26 1204.05 1687.78 1232.31 1692.51 1241.94 1708.02 1268.49 1714.16 1277.4 1730.84 1298.12 1720.31 1307.61 1730.84 1298.12 1740.76 1308.3 1761.69 1326.23 1775.49 1336 1800.27 1350.23 1816.82 1357.71 1825.46 1361.08 1844.82 1367.43 1854.36 1370.01 1859.84 1371.34 1869.82 1373.5 1875.55 1374.59 1885.99 1376.31 1893.25 1377.32 1906.75 1378.81 1930.36 1382.89 1930.3 2892.26"/>
</svg>
