<?xml version="1.0" encoding="UTF-8"?>
<svg xmlns="http://www.w3.org/2000/svg" version="1.1" width="4337.01" height="3401.57" viewBox="0 0 4337.01 3401.57">
  <defs>
    <style>
      .st0 {
        fill: none;
        stroke: #231815;
        stroke-miterlimit: 10;
        stroke-width: .2px;
      }
    </style>
  </defs>
  <polyline class="st0" points="3200.07 992.544 3442.88 1087.84 3405.36 1162.9 3393.71 1237.86 3392.91 1244.41 3388.81 1291.75 3387.81 1320.89 3388.55 1360.27 3392.04 1396.39 3378.01 1398.4 3392.04 1396.39 3392.14 1397.09 3398.23 1431.61 3406.12 1466.42 3409.96 1478.32 3396.55 1482.9 3409.96 1478.32 3420.12 1501.31 3422 1504.92 3435.95 1528.22 3439.85 1533.77 3455.79 1552.9 3461.99 1559.08 3479.24 1573.41 3498.39 1585.4 3518.57 1594.46 3539.05 1600.21 3542.45 1600.87 3569.23 1603.92 3596.3 1604.76 3596.3 2959.28 2938.79 2959.28 2281.28 2959.28 2281.28 1604.76 2316.96 1603.29 2335.13 1600.87 2357.14 1595.12 2359.01 1594.46 2379.19 1585.4 2398.34 1573.41 2415.59 1559.08 2431.57 1541.77 2437.73 1533.77 2452.32 1510.88 2455.58 1504.92 2466.81 1480.51 2467.62 1478.32 2481.03 1482.9 2467.62 1478.32 2474.6 1454.3 2479.35 1431.61 2485.44 1397.09 2485.54 1396.39 2499.57 1398.4 2485.54 1396.39 2489.11 1358.76 2489.77 1320.89 2487.53 1273.39 2484.67 1244.41 2474.7 1177.54 2472.22 1162.9 2434.7 1087.84 2677.51 992.544 2709.03 1070.9 2718 1089.58 2728.97 1104.91 2734.39 1110.95 2751.25 1126.47 2754.2 1128.75 2771.68 1140.04 2776.3 1142.44 2797.08 1150.8 2817.05 1156.42 2846.67 1162.43 2885.15 1166.69 2938.79 1168.87 2938.79 1183.04 2938.79 1168.87 2997.95 1166.27 3030.91 1162.43 3060.53 1156.42 3086.21 1148.83 3101.28 1142.44 3119.17 1131.81 3123.38 1128.75 3139.46 1114.77 3143.19 1110.95 3155.84 1095.49 3159.58 1089.58 3168.55 1070.9 3200.07 992.544"/>
  <polyline class="st0" points="1295.04 1100.4 1302.21 1127.07 1315.78 1168.88 1318.25 1175.6 1335.29 1216.92 1349.67 1245.89 1367.62 1276.12 1371.28 1281.6 1359.52 1289.51 1371.28 1281.6 1386.12 1301.74 1407.76 1326.06 1416.86 1334.87 1441.71 1355.6 1451.95 1362.92 1477.29 1378.52 1492.15 1386.22 1519.11 1398.33 1519.11 1412.51 1519.11 1398.33 1546.06 1386.22 1572.19 1371.99 1586.26 1362.92 1611.95 1343.24 1621.35 1334.87 1643.98 1311.46 1652.09 1301.74 1666.93 1281.6 1678.69 1289.51 1666.93 1281.6 1670.59 1276.12 1688.54 1245.89 1706.07 1209.89 1719.96 1175.6 1734.86 1131 1736 1127.07 1743.17 1100.4 1981 1192.93 1972.73 1252.34 1968.73 1300.37 1968.27 1344.39 1968.38 1348.22 1971.15 1387.17 1972.37 1396.85 1958.33 1398.73 1972.37 1396.85 1978.82 1431.27 1980.94 1439.78 1990.58 1470.5 1994.72 1481.03 2006.45 1505.44 2007.59 1507.5 2022.19 1530.03 2023.59 1531.9 2039.38 1550.17 2045.46 1556.11 2064.1 1571.44 2071.1 1576.23 2091.87 1587.82 2093.76 1588.69 2114.65 1596.39 2118.15 1597.34 2138.06 1601.25 2176.62 1605.93 2176.62 2959.28 1519.11 2959.28 861.59 2959.28 861.59 1605.93 900.152 1601.25 920.065 1597.34 939.699 1590.75 944.455 1588.69 965.37 1577.35 967.112 1576.23 986.428 1561.77 992.753 1556.11 1009.33 1538.54 1014.62 1531.9 1028.58 1511.04 1030.62 1507.5 1042.34 1483.74 1043.49 1481.03 1053.73 1452.35 1057.27 1439.78 1064.53 1405.51 1065.84 1396.85 1079.88 1398.73 1065.84 1396.85 1069.27 1360.9 1069.83 1348.22 1069.64 1304.19 1069.48 1300.37 1065.48 1252.34 1057.21 1192.93 1295.04 1100.4"/>
  <polyline class="st0" points="2179.16 837.442 2115.45 925.316 2179.16 1013.19 1723.34 1013.19 1723.34 999.017 1723.34 1013.19 1489.2 1013.19 1489.2 999.017 1489.2 1013.19 1255.06 1013.19 1255.06 999.017 1255.06 1013.19 799.246 1013.19 862.949 925.316 799.246 837.442 1255.06 837.442 1255.06 851.615 1255.06 837.442 1489.2 837.442 1489.2 851.615 1489.2 837.442 1723.34 837.442 1723.34 851.615 1723.34 837.442 2179.16 837.442"/>
</svg>
