<?xml version="1.0" encoding="UTF-8"?>
<svg xmlns="http://www.w3.org/2000/svg" version="1.1" width="4337.01" height="3401.57" viewBox="0 0 4337.01 3401.57">
  <defs>
    <style>
      .st0 {
        fill: none;
        stroke: #231815;
        stroke-miterlimit: 10;
        stroke-width: .2px;
      }
    </style>
  </defs>
  <polyline class="st0" points="3433.14 795.657 3717.13 887.67 3678.84 964.266 3665.63 1057.17 3663.03 1080.48 3658.71 1137.02 3657.54 1189.37 3659.27 1239.02 3663.88 1286.3 3665.37 1296.98 3651.35 1299.05 3665.37 1296.98 3665.47 1297.65 3671.64 1332.55 3681.56 1373.23 3683.5 1379.76 3669.94 1383.87 3683.5 1379.76 3696.09 1415.38 3699.74 1424.1 3714.58 1454.72 3725.07 1472.76 3743.07 1498.71 3757.74 1516.23 3778.37 1536.65 3783.85 1541.41 3807.18 1559.02 3813.3 1563.03 3838.27 1577.03 3844.76 1580.06 3871.74 1590.18 3882.5 1593.24 3913.23 1599.6 3961.9 1605.31 3968.89 1605.96 3968.89 3157.7 3112.95 3157.7 2257.01 3157.7 2257.01 1605.96 2310.94 1599.87 2343.4 1593.24 2370.05 1584.67 2381.14 1580.06 2406.51 1566.79 2412.6 1563.03 2436.39 1546.04 2442.05 1541.41 2463.21 1521.54 2468.16 1516.23 2488.05 1491.73 2500.83 1472.76 2517.39 1443.03 2526.16 1424.1 2539.55 1388.77 2542.4 1379.76 2555.96 1383.87 2542.4 1379.76 2552.24 1342.03 2554.26 1332.55 2560.43 1297.65 2560.53 1296.98 2574.55 1299.05 2560.53 1296.98 2565.85 1249.8 2568.27 1198.01 2568.36 1189.37 2566.96 1132.66 2562.87 1080.48 2553.7 1008.35 2547.06 964.266 2508.77 887.67 2792.76 795.657 2823.3 871.567 2835.18 892.387 2847.37 907.366 2855.85 915.694 2875.06 931.165 2880.17 934.608 2899.64 945.435 2906.8 948.581 2927.59 955.542 2954.97 961.368 2989.64 965.858 3043.77 969.316 3112.95 970.494 3112.95 984.667 3112.95 970.494 3194.45 968.809 3236.26 965.858 3270.93 961.368 3299.27 955.278 3319.1 948.581 3339.06 938.71 3345.73 934.608 3365.43 919.803 3370.05 915.694 3384.34 900.83 3390.72 892.387 3402.6 871.567 3433.14 795.657"/>
  <polyline class="st0" points="1043.04 903.404 1051.5 938.358 1065.32 985.641 1070.82 1002.07 1089.32 1050.87 1108.53 1092.83 1109.44 1094.62 1129.91 1131.44 1131.83 1134.56 1132.23 1135.2 1120.2 1142.69 1132.23 1135.2 1153.14 1165.93 1155.09 1168.51 1178.47 1196.56 1194.04 1212.65 1221.14 1236.79 1238.81 1250.32 1268.18 1269.6 1290.4 1281.96 1325.1 1298.61 1325.1 1312.78 1325.1 1298.61 1359.8 1281.96 1392.34 1263.24 1411.39 1250.32 1439.82 1227.74 1456.17 1212.65 1481.09 1185.96 1495.12 1168.51 1516.25 1137.94 1517.97 1135.2 1530 1142.69 1517.97 1135.2 1518.37 1134.56 1539.1 1097.88 1540.77 1094.62 1560.11 1052.73 1578.73 1003.96 1579.38 1002.07 1595.25 951.216 1598.7 938.358 1607.16 903.404 1886.16 993.023 1875.07 1081.77 1870.7 1139.1 1870.11 1153.46 1869.88 1206.27 1870.57 1224.81 1874.19 1271.24 1877.53 1297.23 1863.51 1299.31 1877.53 1297.23 1884.98 1338.03 1890.45 1360.71 1902.24 1398.87 1911.1 1421.68 1926.1 1453.14 1930.31 1460.78 1947.46 1487.76 1954.13 1496.8 1973.58 1519.58 1986.63 1532.5 2009.63 1551.66 2024.7 1562.13 2049.3 1576.17 2058.3 1580.43 2083.39 1589.97 2094.45 1593.09 2123.94 1598.76 2181.04 1605.46 2181.04 3157.7 1325.1 3157.7 469.162 3157.7 469.162 1605.46 526.26 1598.76 555.753 1593.09 579.139 1585.7 591.902 1580.43 617.039 1567.37 625.505 1562.13 649.719 1544.54 663.572 1532.5 684.435 1511 696.076 1496.8 714.178 1470.45 719.896 1460.77 735.623 1429.67 739.101 1421.68 752.116 1386.67 759.749 1360.71 768.59 1321.51 772.673 1297.23 786.693 1299.31 772.673 1297.23 777.826 1252.41 779.634 1224.81 780.535 1172.01 780.099 1153.46 776.5 1096.08 775.135 1081.77 764.043 993.023 1043.04 903.404"/>
  <polyline class="st0" points="2163.73 639.017 2100.03 726.891 2163.73 814.766 1586.88 814.766 1586.88 800.592 1586.88 814.766 1295.2 814.766 1295.2 800.592 1295.2 814.766 1003.51 814.766 1003.51 800.592 1003.51 814.766 426.66 814.766 490.363 726.891 426.66 639.017 1003.51 639.017 1003.51 653.19 1003.51 639.017 1295.2 639.017 1295.2 653.19 1295.2 639.017 1586.88 639.017 1586.88 653.19 1586.88 639.017 2163.73 639.017"/>
</svg>
