<?xml version="1.0" encoding="UTF-8"?>
<svg xmlns="http://www.w3.org/2000/svg" version="1.1" width="4478.74" height="3401.57" viewBox="0 0 4478.74 3401.57">
  <defs>
    <style>
      .st0 {
        fill: none;
        stroke: #231815;
        stroke-miterlimit: 10;
        stroke-width: .2px;
      }
    </style>
  </defs>
  <polyline class="st0" points="4163.1 3034.92 3307.02 3034.92 2450.94 3034.92 2450.94 1485.22 2481.75 1480.6 2499.43 1479.22 2504.46 1478.71 2508.88 1478.21 2517.73 1477.1 2528.13 1475.54 2543.11 1472.84 2550.31 1471.33 2562.8 1468.38 2569.7 1466.55 2581.62 1463.06 2588.22 1460.92 2599.6 1456.91 2624.68 1446.36 2651.89 1431.83 2654.19 1430.44 2679.11 1413.51 2700.55 1395.82 2713.88 1383 2724.04 1392.9 2713.88 1383 2735.33 1358.68 2737.08 1356.47 2756.83 1328.63 2767.63 1310.7 2783.01 1280.53 2791.17 1261.43 2804.01 1224.4 2808.16 1209.73 2818.55 1163.78 2820.01 1156.25 2826.95 1116.66 2827.05 1116.01 2841.05 1118.21 2827.05 1116.01 2833.54 1064.78 2834.96 1046.7 2836.19 999.938 2836.01 988.243 2833.13 933.971 2832.76 929.26 2824.99 854.489 2816.07 785.642 3056.9 710.919 3077.39 754.381 3080.53 760.131 3092.13 778.558 3104.26 793.029 3116.8 803.968 3131.65 813.02 3150.61 821.052 3174.88 828.002 3204.11 833.369 3244.74 837.262 3307.02 839.566 3369.3 837.262 3409.94 833.369 3439.17 828.002 3463.44 821.052 3482.39 813.02 3497.25 803.968 3509.78 793.029 3521.92 778.558 3533.51 760.131 3550.48 725.897 3557.15 710.919 3797.97 785.642 3784.81 891.838 3781.29 929.26 3778.19 982.336 3778.03 988.243 3778.46 1035.02 3779.09 1046.7 3783.3 1090.16 3787.1 1116.66 3773.1 1118.86 3787.1 1116.66 3794.04 1156.25 3804.78 1205.49 3805.89 1209.73 3817.86 1248.19 3822.88 1261.43 3836.68 1292.36 3846.41 1310.7 3864.55 1339.63 3876.97 1356.47 3898.2 1380.98 3900.16 1383 3890.01 1392.9 3900.16 1383 3913.49 1395.82 3936.79 1414.9 3959.86 1430.44 3986.94 1445.2 3989.36 1446.36 4014.44 1456.91 4025.83 1460.92 4032.43 1463.06 4044.34 1466.55 4051.25 1468.38 4063.74 1471.33 4070.93 1472.84 4085.91 1475.54 4096.32 1477.1 4105.16 1478.21 4109.58 1478.71 4114.61 1479.22 4132.3 1480.6 4163.1 1485.22 4163.1 3034.92"/>
  <polyline class="st0" points="2190.15 3032.87 1334.07 3032.84 477.993 3032.84 477.993 1482.83 508.855 1478.51 526.483 1477.14 535.953 1476.13 549.61 1474.32 557.106 1473.14 570.169 1470.75 577.354 1469.24 589.857 1466.29 615.298 1458.83 626.679 1454.81 648.511 1445.77 674.931 1432.1 681.327 1428.29 706.213 1411.39 727.626 1393.72 740.955 1380.9 751.106 1390.79 740.955 1380.9 762.394 1356.58 764.144 1354.37 783.895 1326.53 794.694 1308.6 810.073 1278.42 818.226 1259.33 831.068 1222.3 835.212 1207.63 845.604 1161.68 847.061 1154.15 853.965 1114.78 854.067 1114.13 868.069 1116.33 854.067 1114.13 860.59 1062.74 862.007 1044.6 863.244 997.842 863.063 986.148 860.185 931.876 859.807 927.165 852.04 852.422 843.131 783.6 1088.01 706.981 1107.57 771.084 1126.96 826.994 1147.01 876.72 1167.57 920.618 1190.22 962.646 1214.4 1001.8 1240.02 1038.29 1266.93 1071.82 1296.01 1103.7 1334.11 1140.84 1372.21 1103.7 1401.29 1071.82 1428.21 1038.3 1453.83 1001.81 1478 962.652 1500.66 920.624 1521.22 876.727 1541.27 827.002 1560.67 771.093 1580.23 706.99 1825.1 783.619 1811.94 889.775 1808.42 927.183 1805.32 980.259 1805.16 986.165 1805.59 1032.94 1806.21 1044.62 1810.44 1088.21 1814.25 1114.79 1800.25 1117 1814.25 1114.79 1821.16 1154.17 1831.9 1203.41 1833 1207.65 1844.98 1246.11 1849.99 1259.35 1863.79 1290.28 1873.52 1308.62 1891.65 1337.55 1904.07 1354.39 1925.29 1378.9 1927.25 1380.92 1917.1 1390.82 1927.25 1380.92 1940.58 1393.75 1963.85 1412.8 1986.88 1428.32 2014.98 1443.59 2019.7 1445.79 2041.53 1454.84 2052.91 1458.86 2078.35 1466.32 2090.85 1469.27 2098.04 1470.78 2111.1 1473.17 2118.6 1474.35 2132.25 1476.16 2141.72 1477.17 2159.35 1478.54 2190.21 1482.86 2190.15 3032.87"/>
</svg>
