<?xml version="1.0" encoding="UTF-8"?>
<svg xmlns="http://www.w3.org/2000/svg" version="1.1" width="4337.01" height="3401.57" viewBox="0 0 4337.01 3401.57">
  <defs>
    <style>
      .st0 {
        fill: none;
        stroke: #231815;
        stroke-miterlimit: 10;
        stroke-width: .2px;
      }
    </style>
  </defs>
  <polyline class="st0" points="3428.2 823.818 3706.33 916.238 3668.14 992.635 3655.07 1083.8 3652.81 1103.89 3648.59 1158.02 3647.38 1208.15 3648.93 1255.7 3653.55 1303.02 3654.69 1311.21 3640.67 1313.27 3654.69 1311.21 3654.79 1311.84 3660.95 1346.71 3670.04 1384.55 3672.8 1393.88 3659.25 1398.02 3672.8 1393.88 3684.92 1427.47 3688.43 1435.68 3702.67 1464.53 3712.7 1481.51 3729.87 1505.92 3743.86 1522.4 3763.49 1541.57 3768.7 1546.02 3790.87 1562.52 3796.68 1566.27 3820.38 1579.35 3826.53 1582.17 3851.37 1591.34 3862.29 1594.39 3893.01 1600.44 3944.03 1605.85 3944.03 3129.35 3116.44 3129.35 2288.84 3129.35 2288.84 1605.85 2339.86 1600.44 2370.59 1594.39 2397.25 1585.92 2406.35 1582.17 2430.41 1569.79 2436.2 1566.27 2458.8 1550.37 2464.17 1546.02 2484.3 1527.38 2489.02 1522.4 2507.98 1499.36 2520.18 1481.51 2536.02 1453.51 2544.44 1435.68 2557.34 1402.37 2560.08 1393.88 2573.63 1398.02 2560.08 1393.88 2569.91 1356.23 2571.93 1346.71 2578.09 1311.84 2578.18 1311.21 2592.2 1313.27 2578.18 1311.21 2583.38 1263.96 2585.45 1214.36 2585.5 1208.15 2584.06 1153.85 2580.07 1103.89 2571.17 1034.84 2564.73 992.635 2526.54 916.238 2804.68 823.818 2835.34 900.029 2846.8 920.543 2858.61 935.334 2866.86 943.572 2885.55 958.909 2890.53 962.329 2909.51 973.115 2916.5 976.262 2939.66 984.041 2963.61 989.224 2997.55 993.933 3047.35 997.454 3116.44 998.836 3116.44 1013.01 3116.44 998.836 3192.65 997.133 3235.32 993.933 3269.26 989.224 3296.99 983 3316.37 976.262 3335.85 966.409 3342.34 962.329 3361.53 947.641 3366.02 943.572 3379.9 928.876 3386.07 920.543 3397.54 900.029 3428.2 823.818"/>
  <polyline class="st0" points="1050.72 931.568 1058.99 965.335 1073.69 1014.67 1077.84 1026.87 1095.85 1074 1114.54 1114.5 1115.42 1116.23 1135.31 1151.77 1137.18 1154.78 1138.06 1156.19 1126.05 1163.71 1138.06 1156.19 1157.45 1184.5 1159.75 1187.54 1182.42 1214.59 1197.52 1230.1 1223.79 1253.37 1240.9 1266.39 1271.36 1286.14 1290.86 1296.84 1324.45 1312.84 1324.45 1327.02 1324.45 1312.84 1358.04 1296.84 1389.55 1278.83 1408 1266.39 1435.53 1244.65 1451.38 1230.1 1475.55 1204.37 1489.15 1187.54 1510.84 1156.19 1522.85 1163.71 1510.84 1156.19 1511.72 1154.78 1531.86 1119.38 1533.48 1116.23 1551.53 1077.57 1569.78 1030.53 1571.06 1026.87 1586.54 977.755 1589.91 965.335 1598.18 931.568 1871.34 1021.55 1860.65 1106.12 1856.41 1160.74 1855.83 1174.43 1855.54 1224.75 1856.17 1242.42 1860.18 1292.19 1862.71 1311.44 1848.69 1313.49 1862.71 1311.44 1869.79 1350.35 1875.01 1371.99 1886.24 1408.38 1894.68 1430.14 1908.97 1460.15 1912.98 1467.43 1929.32 1493.17 1935.68 1501.8 1954.22 1523.53 1966.67 1535.85 1988.59 1554.14 2002.96 1564.13 2026.42 1577.52 2035 1581.59 2060.32 1591.13 2069.47 1593.68 2097.59 1599.1 2152.04 1605.51 2152.04 3129.35 1324.45 3129.35 496.855 3129.35 496.855 1605.51 551.306 1599.1 579.43 1593.68 604.46 1585.57 613.899 1581.59 637.867 1569.13 645.939 1564.13 669.024 1547.34 682.231 1535.85 702.12 1515.34 713.215 1501.8 730.468 1476.66 735.918 1467.43 750.904 1437.77 754.219 1430.14 766.615 1396.75 773.887 1371.99 782.308 1334.61 786.188 1311.44 800.213 1313.49 786.188 1311.44 791.044 1268.72 792.726 1242.42 793.514 1192.1 793.074 1174.43 789.57 1119.75 788.25 1106.12 777.562 1021.55 1050.72 931.568"/>
  <polyline class="st0" points="2137.57 667.364 2073.87 755.238 2137.57 843.113 1578.01 843.113 1578.01 828.939 1578.01 843.113 1294.54 843.113 1294.54 828.939 1294.54 843.113 1011.08 843.113 1011.08 828.939 1011.08 843.113 451.52 843.113 515.223 755.238 451.52 667.364 1011.08 667.364 1011.08 681.537 1011.08 667.364 1294.54 667.364 1294.54 681.537 1294.54 667.364 1578.01 667.364 1578.01 681.537 1578.01 667.364 2137.57 667.364"/>
</svg>
