<?xml version="1.0" encoding="UTF-8"?>
<svg xmlns="http://www.w3.org/2000/svg" version="1.1" width="4478.74" height="3401.57" viewBox="0 0 4478.74 3401.57">
  <defs>
    <style>
      .st0 {
        fill: none;
        stroke: #231815;
        stroke-miterlimit: 10;
        stroke-width: .2px;
      }
    </style>
  </defs>
  <polyline class="st0" points="4115.53 2965.51 3287.8 2965.51 2460.07 2965.51 2460.07 1421.59 2489.84 1417.01 2506.93 1415.62 2511.8 1415.1 2516.07 1414.61 2524.62 1413.5 2534.67 1411.96 2549.15 1409.29 2556.1 1407.81 2568.17 1404.91 2574.84 1403.12 2586.35 1399.7 2592.72 1397.61 2603.72 1393.69 2627.93 1383.4 2653.64 1369.59 2656.41 1367.9 2680.45 1351.45 2701.12 1334.27 2713.97 1321.83 2724.16 1331.68 2713.97 1321.83 2734.55 1298.26 2736.23 1296.12 2755.17 1269.17 2765.51 1251.83 2780.22 1222.64 2788 1204.18 2799.93 1169.4 2804.16 1154.22 2814.58 1106.72 2815.36 1102.56 2821.88 1064.33 2821.98 1063.71 2835.99 1065.86 2821.98 1063.71 2828.18 1014.24 2829.54 996.783 2830.68 951.642 2830.5 940.352 2827.29 883.414 2818.68 802.928 2811.03 744.786 3046.5 669.534 3064.55 710.214 3068.43 717.748 3079.3 735.858 3090.77 750.141 3102.7 761.007 3116.93 770.089 3135.14 778.266 3158.55 785.503 3186.79 791.306 3226.12 795.911 3287.8 798.498 3349.48 795.911 3388.81 791.306 3417.05 785.503 3440.45 778.266 3458.67 770.089 3472.9 761.007 3484.83 750.141 3496.3 735.858 3507.17 717.748 3522.93 684.197 3529.1 669.534 3764.57 744.786 3751.75 847.292 3748.31 883.414 3745.1 940.352 3745.46 985.509 3746.06 996.783 3750.81 1044.14 3753.71 1064.33 3739.71 1066.49 3753.71 1064.33 3760.24 1102.56 3770.13 1149.1 3771.43 1154.22 3782.82 1191.38 3787.6 1204.18 3801.24 1235.03 3810.09 1251.83 3827.46 1279.82 3839.37 1296.12 3859.74 1319.87 3861.63 1321.83 3851.44 1331.68 3861.63 1321.83 3874.48 1334.27 3896.94 1352.8 3919.19 1367.9 3944.74 1381.99 3947.66 1383.4 3971.88 1393.69 3982.87 1397.61 3989.25 1399.7 4000.76 1403.12 4007.43 1404.91 4019.5 1407.81 4026.45 1409.29 4040.93 1411.96 4050.98 1413.5 4059.53 1414.61 4063.8 1415.1 4068.67 1415.62 4085.76 1417.01 4115.53 1421.59 4115.53 2965.51"/>
  <polyline class="st0" points="2142.59 2963.46 1314.85 2963.43 487.119 2963.43 487.119 1419.2 516.946 1414.91 533.986 1413.53 543.14 1412.52 556.339 1410.73 563.584 1409.56 576.206 1407.2 583.15 1405.72 595.229 1402.82 619.803 1395.52 630.795 1391.59 651.874 1382.77 679.233 1368.37 683.545 1365.76 707.549 1349.33 728.194 1332.17 741.038 1319.73 751.229 1329.58 741.038 1319.73 761.617 1296.17 763.296 1294.02 782.229 1267.07 792.571 1249.73 807.277 1220.54 815.059 1202.08 826.987 1167.3 831.22 1152.12 841.639 1104.63 842.417 1100.47 848.905 1062.45 849.001 1061.83 863.009 1063.98 849.001 1061.83 855.232 1012.21 856.592 994.692 857.737 949.553 857.547 938.263 854.34 881.325 845.731 800.867 838.084 742.746 1077.21 665.687 1096.08 727.715 1114.78 781.818 1134.13 829.939 1153.98 872.422 1175.86 913.1 1199.21 951 1223.96 986.322 1249.96 1018.78 1278.07 1049.65 1314.89 1085.61 1351.71 1049.65 1379.82 1018.78 1405.82 986.325 1430.57 951.005 1453.92 913.105 1475.8 872.429 1495.65 829.946 1515 781.825 1533.71 727.723 1552.58 665.696 1791.7 742.764 1778.88 845.232 1775.44 881.342 1772.23 938.28 1772.59 983.436 1773.19 994.71 1777.95 1042.21 1780.87 1062.47 1766.86 1064.63 1780.87 1062.47 1787.36 1100.49 1797.24 1147.02 1798.55 1152.14 1809.93 1189.3 1814.71 1202.1 1828.35 1232.95 1837.2 1249.75 1854.57 1277.74 1866.47 1294.04 1886.84 1317.79 1888.73 1319.75 1878.54 1329.6 1888.73 1319.75 1901.57 1332.19 1924.01 1350.7 1946.22 1365.78 1973.34 1380.65 1977.89 1382.8 1998.97 1391.62 2009.96 1395.54 2034.53 1402.84 2046.61 1405.75 2053.56 1407.23 2066.18 1409.58 2073.42 1410.75 2086.62 1412.55 2095.78 1413.56 2112.82 1414.94 2142.64 1419.23 2142.59 2963.46"/>
</svg>
