<?xml version="1.0" encoding="UTF-8"?>
<svg xmlns="http://www.w3.org/2000/svg" version="1.1" width="4337.01" height="3401.57" viewBox="0 0 4337.01 3401.57">
  <defs>
    <style>
      .st0 {
        fill: none;
        stroke: #231815;
        stroke-miterlimit: 10;
        stroke-width: .2px;
      }
    </style>
  </defs>
  <polyline class="st0" points="3416.33 851.97 3688.6 944.814 3650.51 1021.01 3637.85 1108.11 3635.66 1127.3 3631.24 1185.01 3630.28 1226.93 3631.66 1272.39 3635.99 1317.61 3637.09 1325.44 3623.06 1327.49 3637.09 1325.44 3637.18 1326.04 3643.33 1360.87 3652.38 1398.67 3655.17 1407.98 3641.63 1412.19 3655.17 1407.98 3666.82 1439.54 3670.2 1447.25 3684.3 1475.18 3693.39 1490.26 3710.96 1514.64 3723.04 1528.55 3743.15 1547.73 3746.62 1550.63 3769.27 1567.07 3773.13 1569.5 3795.55 1581.65 3801.36 1584.26 3826.2 1593.12 3835.15 1595.52 3865.67 1601.21 3912.24 1605.72 3912.24 3101.01 3112.99 3101.01 2313.75 3101.01 2313.75 1605.72 2361.86 1601 2390.84 1595.52 2416.03 1587.73 2424.62 1584.26 2447.39 1572.77 2452.86 1569.5 2475.81 1553.48 2479.36 1550.63 2499.82 1531.83 2502.95 1528.55 2520.98 1506.99 2532.6 1490.26 2547.72 1463.99 2555.79 1447.25 2568.2 1415.97 2570.82 1407.98 2584.36 1412.19 2570.82 1407.98 2580.03 1373.23 2582.66 1360.87 2588.81 1326.04 2588.9 1325.44 2602.93 1327.49 2588.9 1325.44 2593.8 1280.27 2595.69 1230.89 2595.71 1226.93 2594.23 1175.04 2590.33 1127.3 2581.7 1061.33 2575.47 1021.01 2537.39 944.814 2809.66 851.97 2840.45 928.495 2851.49 948.703 2862.93 963.306 2870.93 971.455 2889.11 986.656 2893.96 990.054 2914.02 1001.56 2919.28 1003.95 2941.91 1011.78 2965.33 1017.08 2998.55 1022.01 3046.47 1025.68 3112.99 1027.18 3112.99 1041.35 3112.99 1027.18 3186.38 1025.34 3227.44 1022.01 3260.66 1017.08 3289.61 1010.17 3306.7 1003.95 3325.7 994.112 3332.03 990.054 3350.69 975.484 3355.06 971.455 3368.52 956.926 3374.5 948.704 3385.54 928.495 3416.33 851.97"/>
  <polyline class="st0" points="1065.31 959.727 1073.4 992.307 1087.74 1039.91 1091.78 1051.67 1109.31 1097.12 1128.32 1137.84 1147.18 1171.37 1149.44 1175 1150.68 1176.96 1138.7 1184.54 1150.68 1176.96 1171.33 1206.57 1193.31 1232.62 1207.93 1247.56 1233.36 1269.94 1249.92 1282.47 1279.39 1301.46 1298.25 1311.73 1330.73 1327.08 1330.73 1341.25 1330.73 1327.08 1363.21 1311.73 1393.68 1294.43 1411.53 1282.47 1438.18 1261.56 1453.53 1247.56 1476.94 1222.78 1490.12 1206.57 1510.78 1176.96 1522.75 1184.54 1510.78 1176.96 1512.01 1175 1531.56 1140.88 1533.13 1137.84 1550.68 1100.57 1569.05 1053.44 1569.68 1051.67 1584.76 1004.29 1588.05 992.307 1596.14 959.727 1863.44 1050.09 1853.16 1130.47 1848.86 1186.29 1848.47 1195.4 1848.23 1247.11 1848.71 1260.04 1851.99 1303.43 1854.82 1325.66 1840.79 1327.69 1854.82 1325.66 1862.3 1366.13 1866.5 1383.27 1877.16 1417.9 1885.19 1438.61 1898.77 1467.17 1902.58 1474.09 1919.49 1500.51 1924.17 1506.8 1941.8 1527.48 1953.63 1539.22 1974.49 1556.62 1988.15 1566.13 2012.33 1579.81 2018.63 1582.76 2042.71 1591.84 2051.42 1594.28 2078.17 1599.44 2129.97 1605.56 2129.97 3101.01 1330.73 3101.01 531.479 3101.01 531.479 1605.56 583.281 1599.44 610.037 1594.28 633.2 1586.8 642.826 1582.76 667.413 1569.82 673.303 1566.13 695.259 1550.15 707.819 1539.22 726.734 1519.69 737.284 1506.8 753.689 1482.88 758.87 1474.09 773.116 1445.86 776.266 1438.61 788.76 1404.6 794.954 1383.27 803.171 1346.55 806.632 1325.66 820.659 1327.69 806.632 1325.66 811.592 1279.79 812.747 1260.04 813.351 1208.32 812.979 1195.4 809.568 1143.42 808.293 1130.47 798.01 1050.09 1065.31 959.727"/>
  <polyline class="st0" points="2118.34 695.71 2054.63 783.584 2118.34 871.459 1576.07 871.459 1576.07 857.285 1576.07 871.459 1300.82 871.459 1300.82 857.285 1300.82 871.459 1025.58 871.459 1025.58 857.285 1025.58 871.459 483.309 871.459 547.012 783.584 483.309 695.71 1025.58 695.71 1025.58 709.883 1025.58 695.71 1300.82 695.71 1300.82 709.883 1300.82 695.71 1576.07 695.71 1576.07 709.883 1576.07 695.71 2118.34 695.71"/>
</svg>
