<?xml version="1.0" encoding="UTF-8"?>
<svg xmlns="http://www.w3.org/2000/svg" version="1.1" width="4478.74" height="3401.57" viewBox="0 0 4478.74 3401.57">
  <defs>
    <style>
      .st0 {
        fill: none;
        stroke: #231815;
        stroke-miterlimit: 10;
        stroke-width: .2px;
      }
    </style>
  </defs>
  <polyline class="st0" points="3898.95 2754.89 3099.56 2754.89 2300.18 2754.89 2300.18 1216.76 2328.91 1212.22 2345.42 1210.81 2350.12 1210.3 2354.24 1209.81 2362.49 1208.7 2372.2 1207.17 2386.17 1204.55 2392.88 1203.08 2404.52 1200.24 2410.96 1198.48 2422.06 1195.14 2428.21 1193.1 2438.82 1189.27 2462.17 1179.24 2489.61 1164.17 2515.34 1146.2 2532.67 1131.51 2545.03 1119.45 2555.27 1129.25 2545.03 1119.45 2564.76 1096.64 2566.36 1094.57 2584.48 1068.51 2594.37 1051.75 2608.82 1022.62 2615.82 1005.73 2627.15 972.152 2631.16 957.503 2640.98 911.683 2641.7 907.673 2647.81 870.8 2661.82 872.911 2647.81 870.8 2654.14 818.739 2655.11 805.666 2656.16 762.144 2655.96 751.258 2652.81 696.367 2644.41 618.778 2636.96 562.73 2867.13 486.907 2883.73 526.742 2887.33 534.132 2897.47 551.928 2908.28 566.028 2919.61 576.824 2933.2 585.942 2950.68 594.27 2973.21 601.799 3000.46 608.046 3034.67 612.997 3038.49 613.374 3084.88 615.863 3099.56 616.219 3152.11 614.096 3160.63 613.374 3194.88 608.736 3198.66 608.046 3225.91 601.799 3248.44 594.27 3265.93 585.942 3279.52 576.824 3290.85 566.028 3301.66 551.928 3311.8 534.132 3325.96 502.212 3331.99 486.907 3562.16 562.73 3549.67 661.545 3546.32 696.367 3543.16 751.258 3543.45 794.797 3544.02 805.666 3548.39 850.022 3551.32 870.8 3537.3 872.911 3551.32 870.8 3557.42 907.673 3566.73 952.561 3567.97 957.503 3578.76 993.37 3583.31 1005.73 3596.31 1035.52 3604.76 1051.75 3621.36 1078.8 3632.76 1094.57 3651.83 1117.07 3654.09 1119.45 3643.86 1129.25 3654.09 1119.45 3666.45 1131.51 3690.69 1151.43 3709.51 1164.17 3736.96 1179.24 3760.31 1189.27 3770.91 1193.1 3777.06 1195.14 3788.16 1198.48 3794.6 1200.24 3806.24 1203.08 3812.96 1204.55 3826.93 1207.17 3836.63 1208.7 3844.88 1209.81 3849.01 1210.3 3853.71 1210.81 3870.21 1212.22 3898.95 1216.76 3898.95 2754.89"/>
  <polyline class="st0" points="1926 2752.84 1126.61 2752.81 327.228 2752.81 327.228 1214.37 356.02 1210.12 372.473 1208.71 381.31 1207.7 394.051 1205.93 401.044 1204.77 413.227 1202.45 419.927 1200.99 431.583 1198.14 455.29 1191 465.891 1187.17 486.217 1178.57 512.588 1164.56 516.742 1162.02 542.43 1144.08 559.74 1129.42 572.099 1117.35 582.332 1127.16 572.099 1117.35 591.819 1094.55 593.426 1092.47 611.543 1066.41 621.427 1049.65 635.874 1020.53 642.872 1003.63 654.201 970.063 658.21 955.415 668.027 909.597 668.755 905.587 674.828 868.92 674.918 868.318 688.934 870.425 674.918 868.318 681.2 816.575 682.16 803.582 683.213 760.061 683.015 749.175 679.856 694.282 671.463 616.72 664.021 560.692 897.4 483.167 915.565 543.123 933.588 595.421 952.238 641.938 971.379 683.01 992.478 722.337 1015 758.983 1038.88 793.138 1063.98 824.527 1091.11 854.384 1126.65 889.167 1162.19 854.385 1189.32 824.529 1214.42 793.141 1238.3 758.987 1260.83 722.342 1281.93 683.015 1301.07 641.945 1319.72 595.428 1337.75 543.131 1355.91 483.176 1589.29 560.709 1576.8 659.489 1573.45 694.299 1570.29 749.192 1570.58 792.73 1571.14 803.599 1575.53 848.094 1578.47 868.937 1564.46 871.05 1578.47 868.937 1584.54 905.604 1593.85 950.491 1595.09 955.432 1605.88 991.297 1610.42 1003.65 1623.42 1033.45 1631.87 1049.67 1648.47 1076.72 1659.87 1092.49 1678.93 1115 1681.19 1117.37 1670.96 1127.18 1681.19 1117.37 1693.55 1129.44 1717.75 1149.32 1736.55 1162.04 1762.68 1176.5 1767.07 1178.6 1787.4 1187.19 1798 1191.02 1821.7 1198.17 1833.36 1201.02 1840.06 1202.48 1852.24 1204.8 1859.24 1205.95 1871.98 1207.73 1880.81 1208.74 1897.27 1210.15 1926.06 1214.4 1926 2752.84"/>
</svg>
