<?xml version="1.0" encoding="UTF-8"?>
<svg xmlns="http://www.w3.org/2000/svg" version="1.1" width="4478.74" height="3401.57" viewBox="0 0 4478.74 3401.57">
  <defs>
    <style>
      .st0 {
        fill: none;
        stroke: #231815;
        stroke-miterlimit: 10;
        stroke-width: .2px;
      }
    </style>
  </defs>
  <polyline class="st0" points="4023.34 2845.69 3138.91 2845.69 2254.48 2845.69 2254.48 1290.21 2286.32 1285.55 2304.59 1284.19 2309.79 1283.67 2314.36 1283.18 2323.5 1282.05 2334.25 1280.48 2349.74 1277.75 2357.18 1276.21 2370.09 1273.2 2377.23 1271.34 2389.55 1267.77 2396.37 1265.59 2408.15 1261.48 2434.09 1250.68 2462.25 1235.76 2464.63 1234.33 2490.43 1216.94 2512.64 1198.74 2526.46 1185.54 2536.57 1195.47 2526.46 1185.54 2548.76 1160.46 2550.58 1158.18 2571.15 1129.45 2582.41 1110.94 2598.46 1079.77 2606.98 1060.04 2619.11 1026.07 2624.79 1006.6 2635.07 962.414 2637.29 951.29 2644.64 910.339 2644.75 909.673 2658.75 911.913 2644.75 909.673 2650.98 862.43 2653.01 837.968 2654.35 789.594 2654.17 777.494 2651.26 721.342 2650.88 716.468 2642.93 639.101 2633.79 567.862 2879.98 493.63 2900.35 535.027 2905.33 543.839 2917.65 562.584 2930.45 577.243 2943.58 588.255 2959.06 597.276 2978.75 605.163 3003.9 611.827 3034.11 616.76 3076.05 619.942 3138.91 621.989 3201.77 619.942 3243.71 616.76 3273.92 611.827 3299.07 605.163 3318.75 597.276 3334.24 588.255 3347.37 577.243 3360.17 562.584 3372.49 543.839 3388.71 512.982 3397.84 493.63 3644.03 567.862 3630.54 677.747 3626.94 716.468 3623.8 771.383 3623.64 777.494 3624.15 825.886 3624.81 837.968 3629.2 882.932 3633.17 910.339 3619.18 912.589 3633.17 910.339 3640.53 951.29 3651.86 1002.21 3653.03 1006.6 3664.82 1044.23 3670.84 1060.04 3685.26 1092 3695.41 1110.94 3714.31 1140.8 3727.24 1158.18 3749.32 1183.45 3751.36 1185.54 3741.25 1195.47 3751.36 1185.54 3765.18 1198.74 3789.31 1218.36 3813.19 1234.33 3841.22 1249.49 3843.73 1250.68 3869.67 1261.48 3881.45 1265.59 3888.27 1267.77 3900.59 1271.34 3907.73 1273.2 3920.64 1276.21 3928.08 1277.75 3943.57 1280.48 3954.32 1282.05 3963.46 1283.18 3968.03 1283.67 3973.23 1284.19 3991.5 1285.55 4023.34 1290.21 4023.34 2845.69"/>
  <polyline class="st0" points="2159.52 2846.02 1275.09 2845.99 390.663 2845.98 390.663 1290.2 422.559 1285.84 440.773 1284.49 450.56 1283.48 464.674 1281.66 472.422 1280.47 485.924 1278.04 493.352 1276.51 506.278 1273.5 532.585 1265.88 544.356 1261.77 566.941 1252.51 594.28 1238.48 600.9 1234.57 626.668 1217.19 648.848 1199.02 662.662 1185.82 672.777 1195.75 662.662 1185.82 684.959 1160.74 686.78 1158.45 707.346 1129.72 718.601 1111.21 734.65 1080.04 743.173 1060.31 755.295 1026.34 760.979 1006.87 771.258 962.688 773.476 951.563 780.793 910.839 780.9 910.171 794.895 912.413 780.9 910.171 787.446 859.899 789.195 838.245 790.528 789.873 790.356 777.774 787.442 721.623 787.057 716.748 779.108 639.412 769.973 568.201 1020.59 491.998 1040.85 558.177 1060.92 615.896 1081.67 667.228 1102.94 712.542 1126.38 755.923 1151.38 796.337 1177.87 833.995 1205.69 868.593 1235.75 901.492 1275.13 939.807 1314.5 901.494 1344.57 868.596 1372.39 833.999 1398.88 796.341 1423.88 755.929 1447.32 712.548 1468.59 667.236 1489.34 615.904 1509.42 558.186 1529.68 492.007 1780.29 568.22 1766.8 678.061 1763.2 716.767 1760.06 771.681 1759.9 777.792 1760.4 826.182 1761.06 838.263 1765.46 883.366 1769.46 910.858 1755.47 913.11 1769.46 910.858 1776.78 951.582 1788.11 1002.5 1789.27 1006.89 1801.06 1044.53 1807.07 1060.33 1821.49 1092.29 1831.64 1111.23 1850.54 1141.1 1863.46 1158.48 1885.54 1183.75 1887.58 1185.84 1877.47 1195.77 1887.58 1185.84 1901.39 1199.04 1925.5 1218.64 1949.34 1234.59 1976.34 1249.27 1983.3 1252.53 2005.88 1261.8 2017.65 1265.91 2043.96 1273.53 2056.89 1276.54 2064.32 1278.07 2077.82 1280.5 2085.57 1281.69 2099.68 1283.51 2109.47 1284.52 2127.68 1285.87 2159.58 1290.24 2159.52 2846.02"/>
</svg>
