<?xml version="1.0" encoding="UTF-8"?>
<svg xmlns="http://www.w3.org/2000/svg" version="1.1" width="4337.01" height="3401.57" viewBox="0 0 4337.01 3401.57">
  <defs>
    <style>
      .st0 {
        fill: none;
        stroke: #231815;
        stroke-miterlimit: 10;
        stroke-width: .2px;
      }
    </style>
  </defs>
  <polyline class="st0" points="3466.47 767.485 3756.3 859.109 3717.92 935.898 3704.3 1032.76 3701.62 1057.07 3697.22 1116.02 3696.09 1170.59 3698.15 1224.68 3703.18 1274.01 3704.45 1282.93 3690.51 1285.54 3704.53 1283.45 3710.7 1318.38 3720.66 1359.1 3722.58 1365.65 3709.01 1369.73 3722.58 1365.65 3734.54 1400.51 3739.42 1412.51 3754.87 1444.91 3765.83 1464 3784.64 1491.48 3800 1510.06 3821.62 1531.73 3827.38 1536.78 3851.87 1555.51 3858.3 1559.77 3882.52 1573.69 3891.37 1577.94 3915.74 1587.48 3931.1 1592.09 3963.47 1598.99 4012.92 1605.15 4022.13 1606.06 4022.13 3186.05 3137.84 3186.05 2253.55 3186.05 2253.55 1606.06 2306.76 1599.86 2341.03 1593.02 2344.59 1592.09 2370.28 1583.79 2384.31 1577.94 2409.04 1564.95 2417.38 1559.77 2442.37 1541.71 2448.3 1536.78 2470.49 1515.69 2475.68 1510.06 2494.48 1486.88 2509.85 1464 2526.11 1434.61 2536.27 1412.51 2549.21 1378 2553.1 1365.65 2566.68 1369.73 2553.1 1365.65 2563.57 1325.06 2564.98 1318.38 2571.15 1283.45 2571.26 1282.76 2585.28 1284.84 2571.26 1282.76 2576.86 1233.57 2579.44 1181.85 2579.59 1170.59 2578.57 1118.29 2574.06 1057.07 2564.62 981.865 2557.77 935.898 2519.38 859.109 2809.22 767.485 2839.64 843.108 2851.95 864.234 2864.51 879.401 2873.23 887.818 2892.96 903.425 2898.2 906.89 2918.14 917.757 2925.48 920.902 2946.75 927.819 2974.72 933.514 3010.11 937.784 3066.2 941.075 3137.84 942.15 3137.84 956.324 3137.84 942.15 3222.25 940.596 3265.57 937.784 3300.97 933.514 3329.92 927.558 3350.21 920.902 3370.64 911.013 3377.48 906.89 3396.26 893.181 3402.45 887.818 3417.16 872.788 3423.74 864.234 3436.04 843.108 3466.47 767.485"/>
  <polyline class="st0" points="1006.97 875.232 1015.62 911.374 1029.78 960.271 1035.41 977.26 1054.4 1027.75 1074.14 1071.15 1075.07 1073 1096.13 1111.1 1098.1 1114.33 1086.04 1121.77 1098.1 1114.33 1120 1146.76 1122.04 1149.48 1144.49 1176.72 1162.17 1195.2 1188.25 1218.68 1208.34 1234.24 1238.63 1254.25 1261.57 1267.08 1297.38 1284.38 1297.38 1298.55 1297.38 1284.38 1333.19 1267.08 1364.65 1248.99 1386.41 1234.24 1413.9 1212.43 1432.58 1195.2 1456.69 1169.4 1472.71 1149.48 1494.86 1117.22 1496.65 1114.33 1508.72 1121.77 1496.65 1114.33 1516.67 1078.9 1519.69 1073 1538.76 1031.57 1557.31 983.143 1559.34 977.26 1575.6 924.67 1579.13 911.374 1587.78 875.232 1872.61 964.501 1861.11 1057.44 1856.61 1117.46 1856.01 1132.5 1855.85 1187.79 1856.59 1207.21 1860.45 1255.81 1863.97 1283.02 1849.96 1285.11 1863.97 1283.02 1871.78 1325.7 1877.52 1349.43 1888.97 1386.81 1899.15 1413.22 1914.85 1446.14 1919.26 1454.12 1937.21 1482.35 1944.2 1491.81 1964.55 1515.63 1978.22 1529.15 2002.29 1549.19 2018.06 1560.14 2043.81 1574.81 2053.23 1579.27 2077.19 1588.51 2091.06 1592.51 2121.92 1598.43 2181.66 1605.42 2181.66 3186.05 1297.38 3186.05 413.089 3186.05 413.089 1605.42 472.836 1598.43 503.697 1592.51 527.418 1585.07 541.525 1579.27 566.451 1566.43 576.693 1560.14 600.462 1543.01 616.535 1529.15 638.372 1506.66 650.558 1491.81 668.557 1465.78 675.495 1454.12 690.832 1424.08 695.605 1413.22 709.237 1376.59 717.233 1349.43 726.492 1308.43 730.779 1283.02 744.797 1285.11 730.779 1283.02 736.229 1236.1 738.162 1207.21 739.206 1154.91 738.743 1132.5 735.051 1072.42 733.64 1057.44 722.144 964.501 1006.97 875.232"/>
  <polyline class="st0" points="2161.52 610.671 2097.82 698.545 2161.52 786.42 1567.38 786.42 1567.38 772.246 1567.38 786.42 1267.47 786.42 1267.47 772.246 1267.47 786.42 967.567 786.42 967.567 772.246 967.567 786.42 373.423 786.42 437.127 698.545 373.423 610.671 967.567 610.671 967.567 624.844 967.567 610.671 1267.47 610.671 1267.47 624.844 1267.47 610.671 1567.38 610.671 1567.38 624.844 1567.38 610.671 2161.52 610.671"/>
</svg>
