<?xml version="1.0" encoding="UTF-8"?>
<svg xmlns="http://www.w3.org/2000/svg" version="1.1" width="4478.74" height="3401.57" viewBox="0 0 4478.74 3401.57">
  <defs>
    <style>
      .st0 {
        fill: none;
        stroke: #231815;
        stroke-miterlimit: 10;
        stroke-width: .2px;
      }
    </style>
  </defs>
  <polyline class="st0" points="3847.41 2947.6 3076.37 2947.6 2305.33 2947.6 2305.33 1415.25 2333.03 1410.77 2348.95 1409.34 2353.47 1408.82 2357.45 1408.33 2365.41 1407.23 2374.76 1405.72 2388.23 1403.13 2394.7 1401.69 2405.92 1398.9 2412.12 1397.18 2422.82 1393.91 2428.74 1391.92 2438.95 1388.18 2461.44 1378.41 2487.85 1363.76 2512.59 1346.32 2529.26 1332.09 2541.13 1320.4 2551.43 1330.14 2541.13 1320.4 2560 1298.35 2561.53 1296.35 2578.84 1271.18 2588.27 1255 2603.57 1223.31 2608.67 1210.6 2619.94 1176.36 2623.19 1164.12 2632.41 1119.98 2633.09 1116.11 2638.77 1080.6 2652.79 1082.66 2638.77 1080.6 2644.8 1030.47 2645.72 1017.88 2646.68 975.976 2646.47 965.496 2643.36 912.652 2635.18 837.962 2627.94 784.009 2852.84 707.564 2867.98 746.561 2871.29 753.807 2880.7 771.292 2890.85 785.212 2901.57 795.942 2914.53 805.098 2931.28 813.581 2952.93 821.408 2979.2 828.104 3012.23 833.728 3015.93 834.164 3053.35 836.679 3076.37 837.263 3125.97 835.212 3136.8 834.164 3170.62 828.718 3173.54 828.104 3199.8 821.408 3221.45 813.581 3238.2 805.098 3251.16 795.942 3261.88 785.212 3272.03 771.292 3281.44 753.807 3295.79 718.802 3299.9 707.564 3524.79 784.009 3512.64 879.13 3509.37 912.652 3506.26 965.496 3506.48 1007.42 3507.01 1017.88 3511.85 1065.59 3513.96 1080.6 3499.94 1082.66 3513.96 1080.6 3519.65 1116.11 3528.38 1159.36 3529.54 1164.12 3539.75 1198.69 3544.06 1210.6 3558.14 1242.86 3564.47 1255 3580.31 1281.11 3591.2 1296.35 3609.87 1318.56 3611.6 1320.4 3601.31 1330.14 3611.6 1320.4 3623.47 1332.09 3646.78 1351.39 3664.88 1363.76 3691.29 1378.41 3713.78 1388.18 3723.99 1391.92 3729.92 1393.91 3740.61 1397.18 3746.82 1398.9 3758.04 1401.69 3764.5 1403.13 3777.97 1405.72 3787.33 1407.23 3795.28 1408.33 3799.26 1408.82 3803.79 1409.34 3819.7 1410.77 3847.41 1415.25 3847.41 2947.6"/>
  <polyline class="st0" points="1874.46 2945.55 1103.42 2945.51 332.38 2945.52 332.38 1412.87 360.135 1408.65 376 1407.23 384.522 1406.22 396.804 1404.45 403.544 1403.31 415.287 1401.02 421.745 1399.59 432.976 1396.8 455.815 1389.81 466.026 1386.07 485.6 1377.7 512.698 1363.03 514.977 1361.61 539.683 1344.2 556.323 1329.99 568.197 1318.3 578.49 1328.04 568.197 1318.3 587.057 1296.26 588.593 1294.26 605.893 1269.09 615.322 1252.91 630.62 1221.22 635.725 1208.51 646.987 1174.28 650.239 1162.04 659.456 1117.9 660.134 1114.03 665.793 1078.72 665.878 1078.14 679.901 1080.19 665.878 1078.14 671.852 1028.31 672.769 1015.8 673.731 973.899 673.524 963.419 670.414 910.572 662.237 835.907 655 781.972 882.623 703.954 900.091 761.84 917.433 812.334 935.382 857.251 953.812 896.911 974.135 934.891 995.837 970.283 1018.85 1003.27 1043.04 1033.59 1069.19 1062.44 1103.45 1096.05 1137.72 1062.44 1163.88 1033.6 1188.06 1003.28 1211.08 970.287 1232.78 934.896 1253.1 896.917 1271.53 857.257 1289.49 812.341 1306.83 761.848 1324.3 703.963 1551.92 781.989 1539.77 877.078 1536.5 910.589 1533.39 963.435 1533.61 1005.35 1534.14 1015.82 1539 1063.68 1541.12 1078.73 1527.09 1080.79 1541.12 1078.73 1546.77 1114.05 1555.5 1157.29 1556.67 1162.05 1566.87 1196.62 1571.18 1208.53 1585.26 1240.78 1591.58 1252.93 1607.42 1279.04 1618.31 1294.28 1636.97 1316.49 1638.7 1318.32 1628.41 1328.06 1638.7 1318.32 1650.58 1330.01 1673.84 1349.29 1691.92 1361.64 1718.88 1376.57 1721.3 1377.72 1740.87 1386.1 1751.08 1389.84 1773.92 1396.82 1785.15 1399.62 1791.61 1401.05 1803.35 1403.34 1810.09 1404.48 1822.38 1406.25 1830.9 1407.26 1846.76 1408.68 1874.52 1412.9 1874.46 2945.55"/>
</svg>
