<?xml version="1.0" encoding="UTF-8"?>
<svg xmlns="http://www.w3.org/2000/svg" version="1.1" width="4337.01" height="3401.57" viewBox="0 0 4337.01 3401.57">
  <defs>
    <style>
      .st0 {
        fill: none;
        stroke: #231815;
        stroke-miterlimit: 10;
        stroke-width: .2px;
      }
    </style>
  </defs>
  <polyline class="st0" points="3380.88 880.11 3647.27 973.399 3609.3 1049.38 3596.3 1138.51 3594.92 1150.72 3590.6 1205.74 3589.59 1245.72 3591.15 1294.64 3595.6 1337.66 3595.87 1339.52 3581.85 1341.59 3595.87 1339.52 3595.97 1340.24 3602.12 1375.02 3611.12 1412.79 3613.94 1422.07 3600.42 1426.34 3613.94 1422.07 3625.13 1451.61 3628.37 1458.81 3643.23 1487.29 3650.49 1498.99 3667.18 1521.74 3678.64 1534.69 3699.07 1553.69 3700.95 1555.22 3722.34 1570.47 3725.99 1572.72 3748.77 1584.68 3752.61 1586.35 3776 1594.46 3784.41 1596.63 3814.56 1601.91 3856.86 1605.58 3856.86 3072.66 3085.96 3072.66 2315.06 3072.66 2315.06 1605.58 2361.7 1601.34 2387.51 1596.63 2411.21 1589.53 2419.31 1586.35 2440.77 1575.75 2445.94 1572.72 2467.61 1557.87 2470.97 1555.22 2491.6 1536.44 2493.28 1534.69 2511.49 1513.15 2521.43 1498.99 2535.83 1474.46 2543.55 1458.81 2555.47 1429.56 2557.98 1422.07 2571.5 1426.34 2557.98 1422.07 2566.56 1390.22 2569.8 1375.02 2575.95 1340.25 2576.05 1339.52 2590.07 1341.59 2576.05 1339.52 2580.64 1296.52 2582.33 1247.6 2582.33 1245.72 2580.81 1196.23 2577 1150.72 2567.41 1079.72 2562.63 1049.38 2524.65 973.399 2791.05 880.11 2821.97 956.965 2832.6 976.868 2843.66 991.283 2851.42 999.343 2869.08 1014.41 2873.8 1017.78 2893.35 1029.24 2898.48 1031.64 2918.76 1039 2943.46 1044.94 2975.96 1050.09 3022 1053.89 3085.96 1055.52 3085.96 1069.69 3085.96 1055.52 3156.52 1053.54 3195.96 1050.09 3228.46 1044.94 3256.75 1037.9 3273.44 1031.64 3291.95 1021.82 3298.12 1017.78 3316.26 1003.33 3320.5 999.343 3334.98 983.119 3339.33 976.868 3349.95 956.965 3380.88 880.11"/>
  <polyline class="st0" points="1103.49 987.877 1111.39 1019.27 1125.36 1065.13 1129.3 1076.46 1146.34 1120.24 1164.81 1159.46 1183.1 1191.73 1185.29 1195.23 1186.95 1197.83 1175.02 1205.47 1186.95 1197.83 1206.5 1225.6 1227.77 1250.66 1241.92 1265.01 1266.52 1286.52 1282.53 1298.55 1311 1316.77 1329.23 1326.62 1360.6 1341.32 1360.6 1355.5 1360.6 1341.32 1391.97 1326.62 1421.41 1310.03 1438.66 1298.55 1464.43 1278.47 1479.27 1265.01 1501.93 1241.19 1514.69 1225.6 1534.24 1197.83 1546.17 1205.47 1534.24 1197.83 1535.9 1195.23 1554.86 1162.38 1556.38 1159.46 1573.42 1123.56 1591.29 1078.16 1591.9 1076.46 1606.59 1030.82 1609.8 1019.27 1617.7 987.877 1879.14 1078.64 1869.26 1154.82 1865.09 1207.74 1864.72 1216.37 1864.41 1265.4 1864.83 1277.66 1868.42 1323.77 1870.52 1339.89 1856.49 1341.9 1870.52 1339.89 1878.1 1380.47 1881.58 1394.56 1891.68 1427.43 1899.29 1447.08 1913.23 1476.17 1915.78 1480.76 1931.81 1505.83 1936.25 1511.81 1953.54 1532.04 1964.19 1542.58 1984.64 1559.6 1996.93 1568.14 2019.87 1581.13 2025.85 1583.93 2048.7 1592.56 2056.96 1594.87 2082.34 1599.79 2131.5 1605.62 2131.5 3072.66 1360.6 3072.66 589.694 3072.66 589.694 1605.62 638.849 1599.79 664.236 1594.87 687.441 1587.29 695.345 1583.93 718.67 1571.64 724.258 1568.14 745.086 1552.96 757 1542.58 775.485 1523.42 784.945 1511.81 801.659 1487.19 805.413 1480.76 818.919 1453.96 821.904 1447.08 833.743 1414.8 839.613 1394.56 848.192 1355.31 850.668 1339.89 864.697 1341.9 850.668 1339.89 855.386 1295.14 856.359 1277.66 856.847 1228.63 856.475 1216.37 852.803 1163.42 851.926 1154.82 842.049 1078.64 1103.49 987.877"/>
  <polyline class="st0" points="2122.69 724.056 2058.99 811.93 2122.69 899.805 1597.71 899.805 1597.71 885.631 1597.71 899.805 1330.69 899.805 1330.69 885.631 1330.69 899.805 1063.67 899.805 1063.67 885.631 1063.67 899.805 538.69 899.805 602.393 811.93 538.69 724.056 1063.67 724.056 1063.67 738.229 1063.67 724.056 1330.69 724.056 1330.69 738.229 1330.69 724.056 1597.71 724.056 1597.71 738.229 1597.71 724.056 2122.69 724.056"/>
</svg>
