<?xml version="1.0" encoding="UTF-8"?>
<svg id="_레이어_1" data-name="레이어_1" xmlns="http://www.w3.org/2000/svg" version="1.1" viewBox="0 0 4337.01 3401.57">
  <!-- Generator: Adobe Illustrator 29.8.6, SVG Export Plug-In . SVG Version: 2.1.1 Build 1)  -->
  <defs>
    <style>
      .st0 {
        fill: none;
        stroke: #231815;
        stroke-miterlimit: 10;
        stroke-width: .2px;
      }
    </style>
  </defs>
  <polyline class="st0" points="3380.87 880.12 3647.27 973.4 3609.3 1049.38 3596.3 1138.52 3594.92 1150.72 3590.6 1205.74 3589.59 1245.72 3591.15 1294.64 3595.6 1337.66 3595.87 1339.53 3581.85 1341.59 3595.87 1339.53 3595.97 1340.25 3602.12 1375.03 3611.12 1412.8 3613.94 1422.08 3600.42 1426.34 3613.94 1422.08 3625.13 1451.61 3628.37 1458.82 3643.23 1487.3 3650.49 1498.99 3667.18 1521.74 3678.64 1534.7 3699.07 1553.7 3700.95 1555.23 3722.34 1570.48 3725.99 1572.73 3748.77 1584.68 3752.61 1586.35 3776 1594.46 3784.41 1596.64 3814.56 1601.91 3856.86 1605.58 3856.86 3072.67 3085.96 3072.67 2315.06 3072.67 2315.06 1605.58 2361.7 1601.35 2387.51 1596.64 2411.21 1589.53 2419.31 1586.35 2440.77 1575.75 2445.94 1572.73 2467.61 1557.88 2470.97 1555.23 2491.6 1536.45 2493.28 1534.7 2511.49 1513.15 2521.43 1498.99 2535.83 1474.46 2543.55 1458.82 2555.47 1429.56 2557.98 1422.08 2571.5 1426.34 2557.98 1422.08 2566.56 1390.22 2569.8 1375.03 2575.95 1340.25 2576.05 1339.53 2590.07 1341.59 2576.05 1339.53 2580.64 1296.52 2582.33 1247.6 2582.33 1245.72 2580.81 1196.24 2577 1150.72 2567.41 1079.73 2562.63 1049.38 2524.65 973.4 2791.05 880.12 2821.97 956.97 2832.6 976.87 2843.66 991.29 2851.42 999.35 2869.08 1014.41 2873.8 1017.79 2893.35 1029.25 2898.48 1031.64 2918.76 1039 2943.46 1044.95 2975.96 1050.09 3022 1053.9 3085.96 1055.52 3085.96 1069.7 3085.96 1055.52 3156.52 1053.54 3195.96 1050.09 3228.46 1044.95 3256.75 1037.9 3273.44 1031.64 3291.95 1021.82 3298.12 1017.79 3316.26 1003.34 3320.5 999.35 3334.98 983.12 3339.33 976.87 3349.95 956.97 3380.87 880.12"/>
  <polyline class="st0" points="1103.49 987.88 1111.39 1019.28 1125.36 1065.13 1129.29 1076.47 1146.34 1120.25 1164.81 1159.46 1183.1 1191.74 1185.29 1195.23 1186.95 1197.83 1175.02 1205.48 1186.95 1197.83 1206.5 1225.6 1227.77 1250.66 1241.92 1265.02 1266.52 1286.53 1282.53 1298.56 1311 1316.77 1329.23 1326.62 1360.6 1341.33 1360.6 1355.5 1360.6 1341.33 1391.96 1326.62 1421.41 1310.04 1438.66 1298.56 1464.43 1278.47 1479.27 1265.02 1501.93 1241.19 1514.69 1225.6 1534.24 1197.83 1546.17 1205.48 1534.24 1197.83 1535.9 1195.23 1554.86 1162.38 1556.38 1159.46 1573.42 1123.57 1591.29 1078.17 1591.9 1076.47 1606.59 1030.82 1609.8 1019.28 1617.7 987.88 1879.14 1078.64 1869.26 1154.83 1865.09 1207.74 1864.72 1216.38 1864.41 1265.41 1864.83 1277.66 1868.42 1323.77 1870.52 1339.89 1856.49 1341.9 1870.52 1339.89 1878.1 1380.47 1881.58 1394.56 1891.68 1427.43 1899.29 1447.08 1913.23 1476.17 1915.78 1480.77 1931.81 1505.84 1936.25 1511.81 1953.54 1532.05 1964.19 1542.58 1984.64 1559.61 1996.93 1568.14 2019.87 1581.13 2025.85 1583.93 2048.7 1592.56 2056.95 1594.88 2082.34 1599.79 2131.5 1605.63 2131.5 3072.67 1360.6 3072.67 589.69 3072.67 589.69 1605.63 638.85 1599.79 664.24 1594.88 687.44 1587.29 695.35 1583.93 718.67 1571.64 724.26 1568.14 745.09 1552.97 757 1542.58 775.49 1523.42 784.95 1511.81 801.66 1487.19 805.41 1480.76 818.92 1453.97 821.9 1447.08 833.74 1414.81 839.61 1394.56 848.19 1355.32 850.67 1339.89 864.7 1341.9 850.67 1339.89 855.39 1295.14 856.36 1277.66 856.85 1228.63 856.47 1216.38 852.8 1163.42 851.93 1154.83 842.05 1078.64 1103.49 987.88"/>
  <polyline class="st0" points="2122.69 724.06 2058.99 811.94 2122.69 899.81 1597.71 899.81 1597.71 885.64 1597.71 899.81 1330.69 899.81 1330.69 885.64 1330.69 899.81 1063.67 899.81 1063.67 885.64 1063.67 899.81 538.69 899.81 602.39 811.94 538.69 724.06 1063.67 724.06 1063.67 738.23 1063.67 724.06 1330.69 724.06 1330.69 738.23 1330.69 724.06 1597.71 724.06 1597.71 738.23 1597.71 724.06 2122.69 724.06"/>
</svg>